<svg xmlns="http://www.w3.org/2000/svg" xmlns:xlink="http://www.w3.org/1999/xlink" width="110" height="130" viewBox="0 0 110 130"><path d="M28.457 62.314a1.767 1.767 0 1 0 0-3.534 5.307 5.307 0 0 0-5.3 5.301v7.067a5.31 5.31 0 0 0 4.151 5.175c1.342 2.647 5.507 10.73 8.513 15.241 3.276 4.912 10.117 13.154 19.139 13.154 9.021 0 15.863-8.242 19.138-13.154 3.006-4.511 7.172-12.594 8.515-15.241a5.31 5.31 0 0 0 4.149-5.175v-7.067a5.307 5.307 0 0 0-5.3-5.301 1.768 1.768 0 1 0 0 3.534c.976 0 1.767.793 1.767 1.767v7.067c0 .974-.791 1.768-1.767 1.768-.67 0-1.281.377-1.582.976-.051.104-5.291 10.565-8.723 15.711-1.224 1.841-3.009 4.206-5.214 6.321-.484-.125-6.701-1.791-9.735-4.822a1.764 1.764 0 0 0-2.498 0c-3.032 3.031-9.251 4.697-9.734 4.822-2.206-2.115-3.989-4.48-5.215-6.321-3.43-5.146-8.671-15.606-8.723-15.711a1.766 1.766 0 0 0-1.581-.976 1.77 1.77 0 0 1-1.766-1.768v-7.067a1.769 1.769 0 0 1 1.766-1.767zm26.502 32.381c2.416 1.878 5.537 3.168 7.685 3.91-2.297 1.531-4.887 2.579-7.685 2.579-2.799 0-5.39-1.048-7.687-2.579 2.149-.742 5.273-2.032 7.687-3.91zm0 0"/><path d="M54.959 71.148c-.976 0-1.767.793-1.767 1.768v4.701c-3.147 4.049-10.526 4.133-10.602 4.133a1.767 1.767 0 0 0 .001 3.534c.357 0 7.896-.055 12.368-4.34 4.472 4.285 12.013 4.34 12.367 4.34.979 0 1.768-.791 1.768-1.767s-.789-1.767-1.768-1.767c-2.119 0-7.977-.783-10.601-4.17v-4.664a1.766 1.766 0 0 0-1.766-1.768zM27.457 55.82a1.77 1.77 0 0 0 2.34-.304c.047-.055 4.885-5.569 11.028-5.569 2.09 0 3.218.291 4.646.659 1.91.495 4.287 1.107 9.49 1.107 4.859 0 7.233-.532 9.329-1 1.841-.411 3.431-.766 6.572-.766 5.917 0 8.945 5.083 9.067 5.293a1.763 1.763 0 0 0 2.534.579c2.489-1.711 14.902-10.545 14.902-16.474 0-2.788-1.37-9.385-14.063-10.458-.947-.073-1.825.641-1.907 1.612a1.767 1.767 0 0 0 1.61 1.911c4.042.341 10.825 1.696 10.825 6.935 0 2.762-6.582 8.657-11.954 12.56-1.701-2.088-5.348-5.493-11.015-5.493-3.532 0-5.47.434-7.343.852-2.011.45-4.09.915-8.559.915-4.752 0-6.8-.528-8.606-.995-1.537-.397-2.99-.772-5.528-.772-5.861 0-10.526 3.691-12.582 5.638-5.408-3.899-12.154-9.909-12.154-12.705 0-4.492 5.152-7.067 14.135-7.067 5.714 0 8.521 1.604 11.491 3.3 3.24 1.853 6.59 3.767 13.244 3.767 6.655 0 9.952-1.908 13.139-3.753 2.35-1.361 4.569-2.645 8.281-3.108a1.763 1.763 0 0 0 1.366-.972 1.763 1.763 0 0 0-.06-1.675c-.238-.404-6.004-9.928-22.727-9.928-6.097 0-11.426 1.265-15.838 3.762a1.767 1.767 0 1 0 1.742 3.075c3.872-2.192 8.615-3.304 14.095-3.304 10.001 0 15.449 3.696 17.946 6.123-2.713.731-4.668 1.864-6.576 2.966-2.914 1.687-5.664 3.28-11.37 3.28-5.714 0-8.521-1.605-11.491-3.301-3.241-1.853-6.59-3.767-13.245-3.767-15.945 0-17.668 7.414-17.668 10.601.003 5.931 12.415 14.765 14.904 16.476zm0 0"/><defs><path id="a" d="M1.954 19.828h106.092v106.34H1.954z"/></defs><clipPath id="b"><use xlink:href="#a" overflow="visible"/></clipPath><path clip-path="url(#b)" d="M63.794 65.849a1.766 1.766 0 1 0 3.533 0h1.767a1.767 1.767 0 1 0 0-3.534h-7.066a1.767 1.767 0 1 0 0 3.534h1.766zm44.117 57.876l-1.768-7.068c-1.682-6.728-7.581-10.146-17.526-10.167l.003-.005c1.07-1.856 1.859-4.79-.482-8.232a1.734 1.734 0 0 0-.566-.529l-8.749-5.129a1.762 1.762 0 0 0-2.418.631 1.767 1.767 0 0 0 .629 2.418l8.388 4.915c.901 1.478.939 2.772.139 4.159-.586 1.014-1.313 1.563-2.321 1.801l-6.18-4.738a1.769 1.769 0 0 0-2.151 2.807l6.173 4.73c.021 1.031-.332 1.914-1.136 2.719-.827.826-1.67 1.173-2.709 1.14L72.493 107a1.77 1.77 0 0 0-2.478-.326 1.77 1.77 0 0 0-.325 2.479l4.739 6.165c-.248 1-.816 1.765-1.803 2.333-1.01.585-1.915.696-2.91.398l-2.984-7.191a1.768 1.768 0 0 0-3.265 1.353l2.982 7.183c-.498.905-1.246 1.493-2.345 1.788-1.131.303-2.033.175-2.915-.369l-1.021-7.72a1.76 1.76 0 0 0-1.982-1.52 1.768 1.768 0 0 0-1.52 1.985l1.019 7.708c-.713.745-1.588 1.12-2.727 1.12-1.17 0-2.007-.355-2.718-1.111l1.012-7.721a1.77 1.77 0 0 0-1.523-1.982 1.773 1.773 0 0 0-1.981 1.522l-1.009 7.711c-.885.534-1.827.669-2.925.376-1.128-.303-1.848-.864-2.338-1.777l2.974-7.195a1.768 1.768 0 0 0-.958-2.309 1.774 1.774 0 0 0-2.309.959l-2.971 7.188c-.992.286-1.935.173-2.921-.398-1.013-.583-1.56-1.31-1.798-2.319l4.736-6.18a1.769 1.769 0 0 0-.329-2.479 1.772 1.772 0 0 0-2.477.329l-4.73 6.173c-1.034.019-1.915-.333-2.719-1.136-.827-.828-1.17-1.674-1.139-2.711l6.175-4.742a1.772 1.772 0 0 0 .324-2.479 1.764 1.764 0 0 0-2.477-.323l-6.168 4.736c-1.002-.245-1.763-.814-2.331-1.801-.814-1.409-.781-2.605.147-4.171l8.377-4.904a1.767 1.767 0 0 0-1.786-3.051l-8.754 5.126a1.792 1.792 0 0 0-.586.56c-.683 1.047-2.753 4.23-.46 8.205l.004.007c-9.946.021-15.845 3.439-17.527 10.167l-1.766 7.066a1.769 1.769 0 0 0 1.716 2.198c.792 0 1.51-.535 1.711-1.338l1.767-7.066c1.261-5.045 5.902-7.498 14.187-7.498.851 0 1.529-.613 1.697-1.414a6.892 6.892 0 0 0 2.201 1.209c.089 1.771.82 3.354 2.188 4.723 1.343 1.342 2.951 2.081 4.715 2.182.543 1.689 1.659 3.026 3.334 3.992 1.645.951 3.389 1.252 5.121.891.96 1.49 2.387 2.494 4.254 2.996 1.835.49 3.597.328 5.177-.467 1.312 1.189 2.948 1.791 4.883 1.791 1.901 0 3.561-.613 4.879-1.791 1.58.811 3.316.967 5.182.467 1.833-.492 3.279-1.514 4.248-2.992 1.737.371 3.449.076 5.126-.893 1.646-.949 2.774-2.311 3.328-3.99 1.771-.088 3.353-.818 4.722-2.186 1.343-1.344 2.081-2.951 2.184-4.718a6.7 6.7 0 0 0 2.207-1.202c.173.796.848 1.402 1.694 1.402 8.286 0 12.926 2.453 14.188 7.498l1.767 7.066a1.766 1.766 0 1 0 3.428-.857zm0 0"/><path d="M47.892 62.314h-7.067a1.768 1.768 0 0 0 0 3.534h1.767a1.767 1.767 0 0 0 3.533 0h1.767a1.767 1.767 0 0 0 0-3.534zm5.3 22.969a1.768 1.768 0 1 0 0 3.534h3.533c.978 0 1.767-.791 1.767-1.767s-.789-1.767-1.767-1.767h-3.533zm0 0"/><path fill="#090B0F" d="M77.956 31.104c.337-.511.889-1.125 1.464-1.774.805-.908 1.629-1.797 2.458-2.682a357.676 357.676 0 0 1 5.043-5.263c3.229-3.311 6.872-6.14 11.029-8.209 1.746-.868.214-3.48-1.528-2.614-4.371 2.175-8.245 5.198-11.643 8.682a359.693 359.693 0 0 0-5.233 5.466c-1.443 1.545-3.035 3.093-4.204 4.866-1.076 1.632 1.545 3.15 2.614 1.528z"/><path fill="#090B0F" d="M80.098 27.36c.785-6.323 3.786-11.648 8.674-15.687 2.353-1.943 5.071-3.557 8.116-4.091 2.845-.499 6.875 1.574 5.253 4.954-1.608 3.35-4.973 4.655-8.192 5.86-1.338.501-1.533 2.496 0 2.92.488.135.61.275.557.724-.025.211-.009.137-.404.325-.659.313-1.602.372-2.311.534-2.357.538-5.036 1.057-7.11 2.36-1.646 1.034-.128 3.656 1.528 2.615 2.276-1.431 5.313-1.795 7.897-2.381 1.771-.402 3.192-1.319 3.403-3.228.208-1.886-.961-3.373-2.756-3.87v2.92c1.684-.63 3.465-1.156 5.01-2.097 1.682-1.023 3.173-2.483 4.32-4.073 2.642-3.662 1.316-8.23-2.799-10.025-3.846-1.677-8.482.118-11.793 2.255a29.615 29.615 0 0 0-7.437 6.898c-2.904 3.833-4.397 8.35-4.985 13.084-.239 1.932 2.79 1.915 3.029.003z"/></svg>