<svg xmlns="http://www.w3.org/2000/svg" width="90" height="90" viewBox="0 0 90 90"><path d="M58.669 62.511a5.804 5.804 0 0 0-1.734-4.154c-.764-.762-1.695-1.244-2.674-1.499l3.108-3.087a5.81 5.81 0 0 0 1.734-4.152 5.812 5.812 0 0 0-1.734-4.154c-1.117-1.111-2.605-1.721-4.187-1.721s-3.068.61-4.188 1.721l-2.673 2.65a5.79 5.79 0 0 0-1.513-2.65 5.903 5.903 0 0 0-4.188-1.721c-1.581 0-3.069.61-4.186 1.721l-3.721 3.69a5.775 5.775 0 0 0-1.514-2.651 5.9 5.9 0 0 0-4.186-1.721 5.9 5.9 0 0 0-4.186 1.721l-10.5 10.415H2.18c-.818 0-1.481.658-1.481 1.469s.663 1.468 1.481 1.468h7.875c-.835 2.128-.414 4.717 1.259 6.379 1.84 1.822 4.586 2.17 6.797 1.088.203 1.14.726 2.225 1.578 3.066 1.826 1.811 4.544 2.165 6.749 1.114a5.815 5.815 0 0 0 1.624 3.039c1.826 1.811 4.546 2.166 6.75 1.113a5.823 5.823 0 0 0 1.624 3.042 5.91 5.91 0 0 0 4.186 1.72 5.913 5.913 0 0 0 4.188-1.72l12.125-12.033a5.807 5.807 0 0 0 1.734-4.153zm-45.262 1.646a2.918 2.918 0 0 1-.866-2.078c0-.783.309-1.522.866-2.077l.582-.577 10.933-10.846a2.95 2.95 0 0 1 2.093-.86c.792 0 1.534.305 2.094.86 1.117 1.109 1.117 3.044 0 4.153L17.595 64.156a2.981 2.981 0 0 1-4.188.001zm8.375 4.156a2.91 2.91 0 0 1-.868-2.079c0-.784.308-1.521.868-2.076l16.746-16.616a2.95 2.95 0 0 1 2.094-.86 2.95 2.95 0 0 1 2.094.86c1.118 1.108 1.118 3.045 0 4.152l-6.512 6.463-8.142 8.077-.003.004-2.089 2.075a2.986 2.986 0 0 1-4.188 0zm8.373 4.153a2.91 2.91 0 0 1-.867-2.078 2.9 2.9 0 0 1 .864-2.074l8.144-8.08L51.09 47.541a2.944 2.944 0 0 1 2.093-.86 2.95 2.95 0 0 1 2.093.86c1.119 1.108 1.119 3.045 0 4.152l-6.71 6.66-.005.003-14.219 14.108a2.983 2.983 0 0 1-4.187.002zm10.467 5.013a2.95 2.95 0 0 1-2.094-.86c-.557-.555-.865-1.292-.865-2.077s.309-1.522.865-2.075l12.133-12.038a2.98 2.98 0 0 1 4.181.004c1.119 1.11 1.119 3.045 0 4.156l-12.125 12.03c-.56.556-1.304.86-2.095.86zm-2.916-61.641c.817 0 1.48-.656 1.48-1.468 0-.812-.663-1.469-1.48-1.469-10.699 0-17.005 4.431-20.773 7.079-1.099.772-2.467 1.733-2.911 1.733H2.18c-.818 0-1.481.658-1.481 1.469 0 .812.663 1.468 1.481 1.468h11.842c1.385 0 2.744-.953 4.623-2.275 3.705-2.603 9.302-6.537 19.061-6.537zm45.888 42.549c0 .811.662 1.469 1.479 1.469h2.961c.818 0 1.481-.658 1.481-1.469s-.663-1.469-1.481-1.469h-2.961c-.817 0-1.479.658-1.479 1.469zm0 0"/><path d="M39.435 19.431c-2.321 3.454-8.663 14.303-8.975 14.844-.493.981-.425 2.07.196 3.066 1.338 2.147 5.007 3.464 7.05 3.464 2.844 0 4.572-1.98 6.402-4.076.634-.727 1.291-1.478 2.046-2.228l7.402-7.344c.49-.485.953-.945 1.093-1.008.083-.027.398-.029.707-.029.937.346 4.063 3.059 6.419 5.395l14.845 16.2c.425.426 1.053 1.328 1.053 1.903v13.216c0 1.621-1.328 2.938-2.961 2.938s-2.96-1.317-2.96-2.938v-10.28c0-2.018-1.72-3.78-1.915-3.975l-10.361-10.28a1.487 1.487 0 0 0-2.093 0 1.458 1.458 0 0 0 0 2.076L67.739 50.65c.424.428 1.052 1.33 1.052 1.903v14.688c0 1.62-1.328 2.938-2.961 2.938s-2.961-1.318-2.961-2.938v-11.75c0-.81-.663-1.468-1.48-1.468-.816 0-1.479.658-1.479 1.468v16.155c0 1.621-1.329 2.938-2.961 2.938a2.976 2.976 0 0 1-1.975-.748 1.487 1.487 0 0 0-2.09.113 1.46 1.46 0 0 0 .114 2.074 5.937 5.937 0 0 0 3.95 1.498 5.89 5.89 0 0 0 5.858-5.257c.888.528 1.915.85 3.022.85a5.89 5.89 0 0 0 5.859-5.255 5.899 5.899 0 0 0 3.022.849c3.266 0 5.922-2.634 5.922-5.873V49.618c0-2.019-1.721-3.78-1.866-3.926L63.916 29.486c-6.354-6.304-7.93-6.304-8.448-6.304-1.963 0-2.334.238-4.007 1.899l-7.401 7.343c-.832.823-1.553 1.652-2.191 2.382-1.756 2.012-2.739 3.062-4.164 3.062-1.867 0-4.598-1.58-4.64-2.2.064-.111 6.562-11.229 8.833-14.609 2.551-3.797 6.569-8.158 15.051-8.158 6.354 0 14.968 4.957 20.665 8.236 4.072 2.344 6.091 3.471 7.459 3.471h2.961c.817 0 1.48-.658 1.48-1.469s-.663-1.469-1.48-1.469H85.09c-.752-.06-3.535-1.66-5.988-3.073C72.77 14.955 64.1 9.964 56.948 9.964c-9.998 0-14.783 5.404-17.513 9.467zm0 0"/></svg>