<svg xmlns="http://www.w3.org/2000/svg" width="80" height="80" viewBox="0 0 80 80"><path d="M17.837 52.237l-1.068.616a1.235 1.235 0 0 0 1.234 2.138l1.067-.616a1.235 1.235 0 0 0-1.233-2.138zm10.12 9.112a1.235 1.235 0 0 0-1.687.451l-.617 1.068a1.233 1.233 0 0 0 1.068 1.852c.427 0 .842-.221 1.07-.617l.617-1.068a1.232 1.232 0 0 0-.451-1.686zm-8.784-34.105l-1.068-.618a1.233 1.233 0 0 0-1.686.452 1.232 1.232 0 0 0 .451 1.686l1.069.617a1.232 1.232 0 0 0 1.234-2.137zm-.155 13.732c0-.683-.551-1.235-1.233-1.235h-3.701a1.235 1.235 0 0 0 0 2.468h3.701c.68 0 1.233-.552 1.233-1.233zm0 0"/><path d="M40 8.884c-17.695 0-32.09 14.396-32.09 32.09S22.305 73.063 40 73.063c17.694 0 32.09-14.396 32.09-32.089S57.694 8.884 40 8.884zm0 61.711c-16.333 0-29.621-13.289-29.621-29.621 0-16.333 13.289-29.621 29.621-29.621s29.621 13.288 29.621 29.621c0 16.332-13.289 29.621-29.621 29.621zm0 0"/><path d="M52.043 20.599a1.229 1.229 0 0 0 1.685-.452l.617-1.068a1.234 1.234 0 1 0-2.137-1.235l-.617 1.069a1.233 1.233 0 0 0 .452 1.686zm9.504 9.276c.209 0 .422-.053.615-.166l1.068-.617a1.234 1.234 0 0 0 .451-1.687 1.233 1.233 0 0 0-1.686-.451l-1.068.617a1.233 1.233 0 0 0 .62 2.304zm0 0"/><path d="M70.854 3.947H9.145a6.178 6.178 0 0 0-6.171 6.171v61.711A6.178 6.178 0 0 0 9.145 78h56.773a1.234 1.234 0 0 0 0-2.468H9.145a3.707 3.707 0 0 1-3.703-3.702V10.118a3.708 3.708 0 0 1 3.703-3.703h61.711a3.707 3.707 0 0 1 3.702 3.703v61.711a3.707 3.707 0 0 1-3.702 3.702 1.233 1.233 0 1 0 0 2.468 6.18 6.18 0 0 0 6.171-6.172v-61.71a6.18 6.18 0 0 0-6.173-6.17zm0 0"/><path d="M63.129 53.183l-1.068-.617a1.232 1.232 0 0 0-1.686.451 1.234 1.234 0 0 0 .451 1.688l1.068.617a1.234 1.234 0 0 0 1.685-.453 1.23 1.23 0 0 0-.45-1.686zm-5.85-13.444H43.475a3.694 3.694 0 0 0-2.24-2.242V15.055a1.235 1.235 0 0 0-2.468 0v22.442a3.694 3.694 0 0 0-2.24 2.242h-1.462a1.233 1.233 0 1 0 0 2.468h1.462a3.687 3.687 0 0 0 2.24 2.239v1.463a1.233 1.233 0 1 0 2.468 0v-1.462a3.69 3.69 0 0 0 2.24-2.24H57.28a1.234 1.234 0 0 0-.001-2.468zM40 42.208a1.235 1.235 0 1 1 .001-2.467A1.235 1.235 0 0 1 40 42.208zm25.916-2.469h-3.702a1.234 1.234 0 0 0 0 2.468h3.702a1.235 1.235 0 0 0 0-2.468zM40 61.956c-.683 0-1.234.552-1.234 1.232v3.703a1.234 1.234 0 0 0 2.468 0v-3.703c0-.68-.552-1.232-1.234-1.232zm13.401-.055a1.234 1.234 0 0 0-2.138 1.235l.616 1.07a1.233 1.233 0 0 0 1.686.449 1.23 1.23 0 0 0 .451-1.685l-.615-1.069zM28.119 17.742a1.234 1.234 0 0 0-1.686-.45 1.233 1.233 0 0 0-.452 1.686l.617 1.067a1.234 1.234 0 1 0 2.138-1.236l-.617-1.067zm0 0"/></svg>