<svg xmlns="http://www.w3.org/2000/svg" width="80" height="80" viewBox="0 0 80 80"><path d="M40 22.593c-9.599 0-17.407 7.809-17.407 17.407 0 9.6 7.809 17.407 17.407 17.407a1.244 1.244 0 0 0 0-2.487c-8.227 0-14.92-6.693-14.92-14.92S31.773 25.08 40 25.08 54.92 31.773 54.92 40c0 6.499-4.15 12.204-10.33 14.199a1.245 1.245 0 0 0 .766 2.368A17.36 17.36 0 0 0 57.407 40c0-9.599-7.809-17.407-17.407-17.407zm0 0"/><path d="M40 35.026A4.979 4.979 0 0 0 35.026 40 4.979 4.979 0 0 0 40 44.973 4.978 4.978 0 0 0 44.973 40 4.979 4.979 0 0 0 40 35.026zm0 7.46A2.489 2.489 0 0 1 37.513 40 2.49 2.49 0 0 1 40 37.513 2.49 2.49 0 0 1 42.486 40 2.489 2.489 0 0 1 40 42.486zm0 0"/><path d="M75.084 32.569l-6.603-1.465a29.73 29.73 0 0 0-2.049-4.954l3.659-5.756c.736-1.288.67-2.383-.2-3.253l-7.034-7.034c-.57-.571-1.189-.69-1.607-.69-.604 0-1.144.234-1.695.521l-5.705 3.63a29.633 29.633 0 0 0-4.953-2.052l-1.48-6.658c-.39-1.433-1.212-2.159-2.443-2.16h-9.946c-1.741 0-2.238 1.527-2.457 2.217l-1.466 6.601a29.543 29.543 0 0 0-4.953 2.052l-5.756-3.661c-.383-.219-.968-.511-1.623-.511-.609 0-1.157.238-1.631.71L10.11 17.14c-1.234 1.231-.505 2.662-.172 3.305l3.632 5.705a29.482 29.482 0 0 0-2.05 4.952l-6.66 1.48c-1.433.392-2.16 1.214-2.16 2.443v9.946c0 1.741 1.527 2.238 2.217 2.458l6.603 1.467a29.805 29.805 0 0 0 2.05 4.952l-3.661 5.754c-.738 1.288-.671 2.384.2 3.256l7.033 7.033c.572.57 1.189.689 1.608.689.604 0 1.144-.232 1.696-.521l5.705-3.63c1.58.829 3.24 1.517 4.954 2.05l1.479 6.659c.391 1.432 1.212 2.16 2.443 2.16h9.946c1.74 0 2.238-1.527 2.458-2.217l1.466-6.602a29.71 29.71 0 0 0 4.953-2.05l5.754 3.66c.385.219.971.511 1.624.511.61 0 1.161-.239 1.632-.712l7.032-7.032c1.232-1.232.504-2.663.17-3.305l-3.63-5.705a29.635 29.635 0 0 0 2.05-4.952l6.659-1.482c1.434-.39 2.16-1.211 2.16-2.442v-9.946c0-1.738-1.529-2.235-2.217-2.455zm-.271 12.341a1.986 1.986 0 0 1-.269.092l-7.314 1.626c-.445.1-.802.435-.927.873a27.287 27.287 0 0 1-2.398 5.796c-.223.398-.207.887.037 1.271l3.963 6.219c.095.185.144.303.167.376l-6.929 6.925a2.228 2.228 0 0 1-.254-.123l-6.322-4.023a1.246 1.246 0 0 0-1.271-.037 27.04 27.04 0 0 1-5.794 2.398 1.242 1.242 0 0 0-.872.927l-1.595 7.198a2.727 2.727 0 0 1-.149.386l-9.795-.002a2.137 2.137 0 0 1-.093-.268l-1.625-7.314a1.243 1.243 0 0 0-.873-.927 27.238 27.238 0 0 1-5.793-2.398 1.247 1.247 0 0 0-1.273.036l-6.217 3.964a3.03 3.03 0 0 1-.377.168l-6.925-6.93c.022-.057.06-.141.125-.254l4.021-6.32c.245-.386.26-.873.038-1.271a27.227 27.227 0 0 1-2.398-5.796 1.249 1.249 0 0 0-.926-.873l-7.199-1.594a3.101 3.101 0 0 1-.386-.147l.001-9.797a2.02 2.02 0 0 1 .269-.094l7.314-1.625c.445-.1.8-.434.926-.873a27.119 27.119 0 0 1 2.4-5.795 1.243 1.243 0 0 0-.038-1.273l-3.965-6.217a2.834 2.834 0 0 1-.166-.375l6.928-6.925c.059.022.142.06.255.123l6.323 4.023c.385.245.874.259 1.273.036a27.202 27.202 0 0 1 5.792-2.4 1.24 1.24 0 0 0 .873-.926l1.594-7.199a3.05 3.05 0 0 1 .148-.384l9.795.001c.025.058.058.143.093.268l1.627 7.316c.098.445.434.8.872.926a27.305 27.305 0 0 1 5.796 2.398c.4.223.886.209 1.273-.036l6.215-3.964c.188-.096.306-.143.378-.168l6.923 6.928a1.697 1.697 0 0 1-.123.255l-4.021 6.323c-.244.384-.26.873-.037 1.272a27.08 27.08 0 0 1 2.398 5.794c.125.439.481.774.927.873l7.2 1.596c.197.063.315.113.384.147l-.004 9.794zm0 0"/></svg>