<svg xmlns="http://www.w3.org/2000/svg" xmlns:xlink="http://www.w3.org/1999/xlink" width="110" height="110" viewBox="0 0 110 110"><path d="M40.802 47.836a1.77 1.77 0 0 0 0 3.539h1.77a1.77 1.77 0 1 0 3.54 0h1.769a1.77 1.77 0 1 0 0-3.539h-7.079zm21.237 0a1.77 1.77 0 0 0 0 3.539h1.77a1.77 1.77 0 1 0 3.54 0h1.771a1.77 1.77 0 0 0 0-3.539h-7.081zm0 0"/><defs><path id="a" d="M1.867 1.742h106.267v106.516H1.867z"/></defs><clipPath id="b"><use xlink:href="#a" overflow="visible"/></clipPath><path clip-path="url(#b)" d="M26.645 15.653v23.334a1.77 1.77 0 0 0 1.769 1.771h46.014a1.77 1.77 0 0 0 0-3.541H30.184V17.519l13.176 8.782a1.771 1.771 0 0 0 2.398-.41L54.96 13.62l9.203 12.271a1.77 1.77 0 0 0 2.397.41l13.176-8.782v21.468a1.77 1.77 0 1 0 3.54 0V15.655c2.057-.734 3.539-2.679 3.539-4.983a5.314 5.314 0 0 0-5.309-5.309 5.315 5.315 0 0 0-5.309 5.309c0 1.513.645 2.874 1.665 3.842l-11.874 7.914-8.138-10.852a5.302 5.302 0 0 0 2.419-4.443 5.315 5.315 0 0 0-5.31-5.309 5.315 5.315 0 0 0-5.309 5.309 5.3 5.3 0 0 0 2.419 4.443l-8.138 10.852-11.874-7.914a5.282 5.282 0 0 0 1.665-3.842 5.315 5.315 0 0 0-5.309-5.309 5.314 5.314 0 0 0-5.309 5.309c.001 2.304 1.484 4.248 3.541 4.981zm54.861-6.752c.975 0 1.77.795 1.77 1.77s-.795 1.771-1.77 1.771c-.976 0-1.77-.795-1.77-1.771s.794-1.77 1.77-1.77zM54.96 5.362c.976 0 1.771.794 1.771 1.77 0 .975-.795 1.769-1.771 1.769-.975 0-1.77-.794-1.77-1.769 0-.975.795-1.77 1.77-1.77zM28.415 8.901c.975 0 1.769.795 1.769 1.77s-.794 1.771-1.769 1.771c-.975 0-1.77-.795-1.77-1.771s.795-1.77 1.77-1.77zm79.547 96.777c-1.759-5.271-6.394-10.188-6.591-10.395a1.775 1.775 0 0 0-2.503-.063 1.771 1.771 0 0 0-.063 2.502c.042.045 4.286 4.545 5.797 9.073a1.776 1.776 0 0 0 2.24 1.12 1.769 1.769 0 0 0 1.12-2.237zm0 0"/><path d="M96.455 90.498c-3.602-1.803-10.816-3.729-20.258-3.729a1.77 1.77 0 0 0 0 3.54c6.849 0 12.442 1.086 16.051 2.294-11.186 8.7-23.909 11.188-27.488 11.739-3.917-5.043-9.014-6.787-9.24-6.863a1.767 1.767 0 0 0-1.118 0c-.227.076-5.324 1.82-9.24 6.863-3.582-.551-16.305-3.039-27.488-11.739 3.608-1.208 9.202-2.294 16.05-2.294a1.77 1.77 0 0 0 0-3.54c-9.441 0-16.656 1.926-20.258 3.729-.526.26-.89.771-.964 1.355a1.774 1.774 0 0 0 .589 1.557c14.418 12.616 31.956 14.513 32.695 14.588a1.776 1.776 0 0 0 1.632-.752c2.617-3.77 6.187-5.594 7.545-6.186 1.361.586 4.902 2.389 7.539 6.186a1.774 1.774 0 0 0 1.633.752c.739-.075 18.277-1.972 32.695-14.588.443-.389.663-.973.59-1.557a1.759 1.759 0 0 0-.965-1.355zm0 0"/><path d="M55.013 104.467h-.017c-.977 0-1.761.793-1.761 1.77s.8 1.77 1.778 1.77a1.77 1.77 0 1 0 0-3.54zm0 0"/><defs><path id="c" d="M1.867 1.742h106.267v106.516H1.867z"/></defs><clipPath id="d"><use xlink:href="#c" overflow="visible"/></clipPath><path clip-path="url(#d)" d="M53.19 72.611h3.541a1.77 1.77 0 0 0 0-3.54H53.19a1.77 1.77 0 0 0 0 3.54zM8.548 95.283c-.196.207-4.831 5.124-6.59 10.394a1.77 1.77 0 0 0 3.359 1.119c1.504-4.511 5.756-9.028 5.799-9.073a1.772 1.772 0 0 0-2.568-2.44zm0 0"/><path d="M27.271 61.87l2.983 5.797c.028.131.053.259.111.382C32.243 84.213 41.401 93.85 54.96 93.85c10.056 0 22.472-4.53 24.683-26.041l3.014-5.941a5.316 5.316 0 0 0 4.158-5.184v-3.539c0-2.493-1.389-4.389-3.539-5.053v-2.026a1.77 1.77 0 0 0-3.54 0v3.54a1.77 1.77 0 0 0 1.77 1.769c1.176 0 1.77.595 1.77 1.771v3.539c0 .976-.795 1.771-1.77 1.771-.668 0-1.276.374-1.578.968l-3.487 6.873c-2.273 2.021-7.104 3.514-10.057 4.229-1.455-4.271-4.778-8.53-11.424-8.53s-9.969 4.26-11.424 8.53c-2.913-.705-7.652-2.168-9.964-4.146l-3.585-6.963a1.773 1.773 0 0 0-1.574-.96c-.975 0-1.77-.795-1.77-1.771v-3.539c0-1.093.678-1.771 1.77-1.771a1.77 1.77 0 0 0 1.77-1.769v-3.54a1.77 1.77 0 0 0-3.54 0v2.049c-2.103.697-3.539 2.629-3.539 5.03v3.539a5.32 5.32 0 0 0 4.167 5.185zm15.457 12.103c-.104.781-.156 1.52-.156 2.178 0 .977.79 1.767 1.767 1.77h.003c.973 0 1.766-.789 1.77-1.766.001-.433.147-10.621 8.848-10.621 8.7 0 8.847 10.188 8.849 10.617a1.77 1.77 0 1 0 3.54 0c0-.658-.051-1.396-.156-2.178 2.055-.488 5.484-1.441 8.412-2.932-2.276 12.775-9.195 19.268-20.645 19.268-10.601 0-18.061-7.111-20.516-19.207 2.901 1.453 6.259 2.39 8.284 2.871zm0 0"/></svg>