<svg xmlns="http://www.w3.org/2000/svg" width="80" height="80" viewBox="0 0 80 80"><path d="M18.951 40.146a1.24 1.24 0 0 0-1.238-1.239h-3.712a1.238 1.238 0 0 0 0 2.476h3.712a1.237 1.237 0 0 0 1.238-1.237zm-1.635 14.227c.21 0 .423-.053.618-.166l1.07-.619a1.239 1.239 0 1 0-1.239-2.144l-1.071.619a1.24 1.24 0 0 0 .622 2.31zm1.791-28.002l-1.072-.619a1.237 1.237 0 1 0-1.238 2.144l1.072.619a1.235 1.235 0 0 0 1.691-.453 1.238 1.238 0 0 0-.453-1.691zm2.32 48.442H4.094a1.238 1.238 0 0 0 0 2.476h17.333a1.24 1.24 0 0 0 0-2.476zm0-4.954H4.094a1.239 1.239 0 0 0 0 2.476h17.333a1.24 1.24 0 0 0 0-2.476zm0 0"/><path d="M7.939 57.565a1.239 1.239 0 0 0 1.104-1.797c-2.462-4.869-3.712-10.127-3.712-15.624C5.332 21.028 20.884 5.476 40 5.476c19.115 0 34.668 15.552 34.668 34.733 0 1.402 0 3.522-.35 4.939a1.238 1.238 0 0 0 2.402.594c.424-1.709.424-4.011.424-5.598C77.145 19.663 60.481 3 40 3S2.855 19.663 2.855 40.145c0 5.889 1.338 11.521 3.978 16.74.219.432.654.68 1.106.68zm0 0"/><path d="M70.627 43.006a1.233 1.233 0 0 0 1.445-.986c.159-.835.121-1.783.119-1.875C72.191 22.395 57.75 7.953 40 7.953S7.808 22.395 7.808 40.145a32.124 32.124 0 0 0 4.725 16.797 1.237 1.237 0 0 0 1.703.408 1.236 1.236 0 0 0 .409-1.702 29.649 29.649 0 0 1-4.359-15.503c0-16.386 13.33-29.715 29.715-29.715s29.715 13.33 29.717 29.658a1.645 1.645 0 0 0-.002.157c.01.192.014.846-.075 1.314-.129.671.313 1.32.986 1.447zm0 0"/><path d="M62.066 26.082l-1.071.619a1.238 1.238 0 1 0 1.239 2.144l1.07-.619a1.24 1.24 0 0 0 .453-1.693 1.235 1.235 0 0 0-1.691-.451zm-35.677-9.695a1.24 1.24 0 0 0-.452 1.692l.619 1.07a1.237 1.237 0 0 0 1.691.453c.592-.343.795-1.1.454-1.693l-.619-1.071a1.24 1.24 0 0 0-1.693-.451zm25.859.554l-.62 1.073a1.239 1.239 0 0 0 2.145 1.237l.619-1.072a1.237 1.237 0 1 0-2.144-1.238zM46.19 74.813H31.333a1.239 1.239 0 0 0 0 2.476H46.19a1.24 1.24 0 0 0 0-2.476zm-14.857-2.477h10.195a1.237 1.237 0 1 0 0-2.476H31.333a1.238 1.238 0 0 0 0 2.476zM26.38 59.955c-.684 0-1.238.555-1.238 1.237V76.05a1.239 1.239 0 0 0 2.476 0V61.192a1.237 1.237 0 0 0-1.238-1.237zm33.431-6.191a2.48 2.48 0 0 1 2.477 2.477 1.238 1.238 0 0 0 2.475 0c0-2.301-1.585-4.223-3.715-4.776v-.177a1.238 1.238 0 0 0-2.475 0v.177c-2.13.554-3.715 2.476-3.715 4.776a4.959 4.959 0 0 0 4.953 4.953 2.48 2.48 0 0 1 2.477 2.477 2.48 2.48 0 0 1-2.477 2.476 2.479 2.479 0 0 1-2.477-2.476 1.238 1.238 0 0 0-2.476 0c0 2.3 1.585 4.223 3.715 4.775v.176a1.238 1.238 0 0 0 2.475 0v-.176c2.13-.553 3.715-2.476 3.715-4.775a4.958 4.958 0 0 0-4.952-4.953 2.479 2.479 0 0 1-2.477-2.477 2.479 2.479 0 0 1 2.477-2.477zm0 0"/><path d="M59.811 42.621c-9.559 0-17.334 7.775-17.334 17.334s7.775 17.334 17.334 17.334c9.558 0 17.334-7.775 17.334-17.334s-7.776-17.334-17.334-17.334zm0 32.192c-8.193 0-14.858-6.665-14.858-14.857 0-8.193 6.665-14.858 14.858-14.858 8.192 0 14.857 6.665 14.857 14.858 0 8.191-6.665 14.857-14.857 14.857zM21.427 59.955H4.094a1.238 1.238 0 0 0 0 2.476h17.333a1.239 1.239 0 0 0 0-2.476zM40 43.859c1.611 0 2.973-1.038 3.486-2.477h1.466a1.238 1.238 0 0 0 0-2.476h-1.466a3.71 3.71 0 0 0-2.248-2.249V14.144a1.238 1.238 0 0 0-2.476 0v22.514a3.714 3.714 0 0 0-2.249 2.249H22.666a1.24 1.24 0 0 0 0 2.476h13.848c.513 1.438 1.874 2.476 3.486 2.476zm0-4.953a1.24 1.24 0 0 1 1.238 1.238A1.24 1.24 0 0 1 40 41.382a1.24 1.24 0 0 1-1.238-1.238A1.24 1.24 0 0 1 40 38.906zM21.427 64.907H4.094a1.238 1.238 0 0 0 0 2.476h17.333a1.24 1.24 0 0 0 0-2.476zm9.906 2.477h8.048a1.238 1.238 0 0 0 0-2.476h-8.048a1.239 1.239 0 0 0 0 2.476zm0-4.952h7.429a1.238 1.238 0 0 0 0-2.476h-7.429a1.239 1.239 0 0 0 0 2.476zm0 0"/></svg>