<svg xmlns="http://www.w3.org/2000/svg" width="110" height="99" viewBox="0 0 110 99"><path d="M54.27 58.199c-.049.047-1.235 1.13-3.626 1.13-2.355 0-3.542-1.053-3.624-1.128a1.57 1.57 0 0 0-2.209.016 1.575 1.575 0 0 0 0 2.226c.208.208 2.14 2.035 5.833 2.035s5.626-1.827 5.834-2.035a1.56 1.56 0 0 0 .007-2.196 1.582 1.582 0 0 0-2.215-.048zm4.241-17.754c-2.591 0-4.074 1.522-4.542 2.42-.392.755-.103 1.655.637 2.072.74.423 1.691.146 2.132-.577.016-.023.092-.115.2-.22v1.027a1.573 1.573 0 0 0 3.146 0v-1.036c.104.097.171.177.178.189a1.575 1.575 0 1 0 2.793-1.456c-.467-.897-1.951-2.419-4.544-2.419zm0 0"/><path d="M72.641 38.483c.687.205 1.136.319 1.226.341a1.573 1.573 0 0 0 .764-3.053c-3.306-.828-12.396-3.985-14.711-8.619a1.579 1.579 0 0 0-.981-.811 1.567 1.567 0 0 0-1.26.18c-12.051 7.531-30.456 7.629-30.641 7.629a1.574 1.574 0 0 0 .002 3.147c.123 0 .682-.003 1.581-.036-.002.013-.008.023-.008.036 0 6.429 3.134 19.233 4.886 22.735 1.665 3.33 6.73 13.459 17.145 13.459s15.479-10.129 17.145-13.459c1.649-3.299 4.524-14.844 4.852-21.549zM50.644 70.344c-8.469 0-12.88-8.82-14.328-11.719-1.434-2.862-4.556-15.241-4.556-21.327 0-.078-.033-.145-.044-.218 6.205-.487 17.38-2.049 26.275-7.083 2.653 3.6 7.809 6.048 11.533 7.438-.045 6.128-3.13 18.347-4.552 21.189-1.448 2.899-5.859 11.72-14.328 11.72zm0 0"/><path d="M44.35 44.131c.101.097.17.177.177.189a1.577 1.577 0 0 0 2.123.668 1.575 1.575 0 0 0 .669-2.124c-.468-.898-1.952-2.42-4.544-2.42-2.591 0-4.076 1.522-4.543 2.42-.392.755-.103 1.655.637 2.072.74.423 1.689.146 2.133-.577.014-.023.091-.115.2-.22v1.027a1.573 1.573 0 0 0 3.147 0v-1.035zm-4.802 34.756c-.869 0-1.566.705-1.566 1.572 0 .87.714 1.574 1.581 1.574a1.572 1.572 0 1 0 0-3.146h-.015zM27.04 53.035v1.574a1.574 1.574 0 0 0 3.147 0v-1.574a1.574 1.574 0 1 0-3.147 0zm38.638 24.393a1.573 1.573 0 1 0 0-3.146h-.015c-.868 0-1.566.704-1.566 1.573s.714 1.573 1.581 1.573zm6.997-25.967c-.868 0-1.574.704-1.574 1.574v1.573a1.575 1.575 0 0 0 3.148 0v-1.573c0-.87-.705-1.574-1.574-1.574zm0 0"/><path d="M97.773 90.305C95.947 84.828 83.944 76.706 71.1 76.706c-.592 0-1.135.335-1.403.863-.243.476-6.068 11.658-19.054 11.658-12.983 0-18.809-11.243-19.051-11.722a1.58 1.58 0 0 0-1.406-.866c-16.228 0-24.84 8.172-26.671 13.664a1.575 1.575 0 0 0 2.987.996c1.452-4.356 8.895-11.214 22.767-11.504 1.791 3.014 8.495 12.581 21.375 12.581 12.87 0 19.573-9.506 21.37-12.51 11.947.376 21.636 8.024 22.772 11.434a1.578 1.578 0 0 0 1.99.996 1.574 1.574 0 0 0 .997-1.991zm0 0"/><path d="M50.675 82.934c-.868 0-1.566.705-1.566 1.574a1.58 1.58 0 0 0 1.582 1.574 1.574 1.574 0 0 0 0-3.148h-.016zm11.124-4.049c-.867 0-1.564.705-1.564 1.574a1.58 1.58 0 0 0 1.582 1.573 1.573 1.573 0 0 0 0-3.147h-.018zm-5.203 3.005c-.868 0-1.565.706-1.565 1.575a1.58 1.58 0 0 0 1.581 1.573 1.574 1.574 0 0 0 0-3.148h-.016zm-11.84 0c-.87 0-1.566.706-1.566 1.575a1.58 1.58 0 0 0 1.581 1.573 1.575 1.575 0 0 0 0-3.148h-.015zm-9.073-7.608c-.868 0-1.565.704-1.565 1.573 0 .87.712 1.574 1.582 1.574s1.573-.704 1.573-1.574c0-.869-.704-1.573-1.573-1.573h-.017zm48.006-38.557c0-5.306.688-12.839-10.521-22.482-10.002-8.606-33.927-9.595-44.807-.799-8.731 7.059-10.764 17.972-10.764 23.281 0 4.331.038 5.056 1.181 7.437-1.882 1.808-2.757 4.468-2.37 7.363.355 2.656 1.729 4.949 3.665 6.275-.65 1.396-.901 2.96-.901 4.104 0 7.41 5.824 12.589 14.162 12.589a1.574 1.574 0 0 0 0-3.148c-5.483 0-11.015-2.92-11.015-9.44 0-1.133.368-2.767 1.177-3.674a1.575 1.575 0 0 0-.679-2.54c-1.701-.566-2.991-2.366-3.288-4.584-.294-2.189.488-4.135 2.09-5.204.659-.44.888-1.303.534-2.012-1.409-2.815-1.409-2.815-1.409-7.165 0-3.968-.463-11.395 9.22-20.24C40.316 6.03 65.068 9.847 72.34 16.561c7.273 6.715 8.203 15.196 8.203 19.164 0 4.332 0 4.332-1.408 7.168a1.573 1.573 0 0 0 .532 2.008c1.593 1.067 2.366 3.016 2.071 5.207-.294 2.185-1.607 4.026-3.271 4.583a1.573 1.573 0 0 0-.612 2.605c1.113 1.111 1.113 2.439 1.113 3.608 0 6.521-5.533 9.44-11.016 9.44a1.574 1.574 0 1 0 0 3.148c8.339 0 14.163-5.179 14.163-12.589 0-1.046 0-2.61-.811-4.173 1.872-1.336 3.201-3.596 3.552-6.203.389-2.896-.48-5.556-2.352-7.364 1.147-2.395 1.185-3.104 1.185-7.438z"/><path fill="#0B0D0F" d="M106.319 20.153a6.196 6.196 0 0 0-3.099-3.627 6.342 6.342 0 0 0-4.756-.376l-.109.036-.034-.108a6.194 6.194 0 0 0-3.099-3.629 6.33 6.33 0 0 0-4.756-.375 6.243 6.243 0 0 0-4.005 7.855l3.424 10.542c.094.287.272.54.501.713a1.493 1.493 0 0 0 1.389.248l10.541-3.423a6.187 6.187 0 0 0 3.625-3.1 6.187 6.187 0 0 0 .378-4.756zm-4.924 5.019l-9.13 2.965-2.965-9.13c-.269-.825-.198-1.705.196-2.48s1.066-1.349 1.891-1.617a3.22 3.22 0 0 1 2.482.196 3.23 3.23 0 0 1 1.615 1.892l.496 1.53c.194.591.808 1.021 1.457 1.021.146 0 .288-.022.423-.065l1.525-.496a3.278 3.278 0 0 1 2.481.196 3.225 3.225 0 0 1 1.616 1.892 3.253 3.253 0 0 1-2.087 4.096z"/><path fill="#080A0E" d="M99.676 40.341a3.76 3.76 0 0 0-1.9-2.191 3.825 3.825 0 0 0-2.892-.205c-.85.284-1.563.85-2.026 1.607a3.795 3.795 0 0 0-2.587-.068 3.764 3.764 0 0 0-2.19 1.901c-.452.904-.523 1.931-.203 2.892s.994 1.739 1.899 2.191l5.365 2.681a1.206 1.206 0 0 0 .735.116l.21-.049c.307-.104.556-.32.702-.61l2.684-5.372a3.767 3.767 0 0 0 .203-2.893zm-2.988-.01c.321.161.562.438.676.781a1.34 1.34 0 0 1-.072 1.03l-2.142 4.284-4.284-2.141a1.35 1.35 0 1 1 1.208-2.416l.777.389c.558.279 1.358.007 1.637-.546l.388-.777c.161-.323.438-.563.78-.677.343-.112.71-.086 1.032.073z"/></svg>