<?xml version="1.0" encoding="utf-8"?>
<!-- Generator: Adobe Illustrator 16.0.0, SVG Export Plug-In . SVG Version: 6.00 Build 0)  -->
<!DOCTYPE svg PUBLIC "-//W3C//DTD SVG 1.1//EN" "http://www.w3.org/Graphics/SVG/1.1/DTD/svg11.dtd">
<svg version="1.1" id="Layer_1" xmlns="http://www.w3.org/2000/svg" xmlns:xlink="http://www.w3.org/1999/xlink" x="0px" y="0px"
	 width="110px" height="130px" viewBox="0 0 110 130" enable-background="new 0 0 110 130" xml:space="preserve">
<g>
	<path d="M28.457,62.314c0.976,0,1.767-0.791,1.767-1.767s-0.792-1.767-1.767-1.767c-2.922,0-5.3,2.379-5.3,5.301v7.067
		c0,2.527,1.777,4.647,4.151,5.175c1.342,2.647,5.507,10.73,8.513,15.241c3.276,4.912,10.117,13.154,19.139,13.154
		c9.021,0,15.863-8.242,19.138-13.154c3.006-4.511,7.172-12.594,8.515-15.241c2.37-0.527,4.149-2.647,4.149-5.175v-7.067
		c0-2.922-2.378-5.301-5.3-5.301c-0.977,0-1.768,0.792-1.768,1.767s0.791,1.767,1.768,1.767c0.976,0,1.767,0.793,1.767,1.767v7.067
		c0,0.974-0.791,1.768-1.767,1.768c-0.67,0-1.281,0.377-1.582,0.976c-0.051,0.104-5.291,10.565-8.723,15.711
		c-1.224,1.841-3.009,4.206-5.214,6.321c-0.484-0.125-6.701-1.791-9.735-4.822c-0.69-0.691-1.808-0.691-2.498,0
		c-3.032,3.031-9.251,4.697-9.734,4.822c-2.206-2.115-3.989-4.48-5.215-6.321c-3.43-5.146-8.671-15.606-8.723-15.711
		c-0.3-0.599-0.911-0.976-1.581-0.976c-0.974,0-1.766-0.794-1.766-1.768v-7.067C26.69,63.108,27.483,62.314,28.457,62.314
		L28.457,62.314z M54.959,94.695c2.416,1.878,5.537,3.168,7.685,3.91c-2.297,1.531-4.887,2.579-7.685,2.579
		c-2.799,0-5.39-1.048-7.687-2.579C49.421,97.863,52.545,96.573,54.959,94.695L54.959,94.695z M54.959,94.695"/>
	<path d="M54.959,71.148c-0.976,0-1.767,0.793-1.767,1.768v4.701c-3.147,4.049-10.526,4.133-10.602,4.133
		c-0.976,0.004-1.766,0.795-1.763,1.769c0.001,0.975,0.79,1.765,1.764,1.765c0.357,0,7.896-0.055,12.368-4.34
		c4.472,4.285,12.013,4.34,12.367,4.34c0.979,0,1.768-0.791,1.768-1.767s-0.789-1.767-1.768-1.767c-2.119,0-7.977-0.783-10.601-4.17
		v-4.664C56.726,71.939,55.934,71.148,54.959,71.148L54.959,71.148z M54.959,71.148"/>
	<path d="M27.457,55.82c0.742,0.51,1.751,0.378,2.34-0.304c0.047-0.055,4.885-5.569,11.028-5.569c2.09,0,3.218,0.291,4.646,0.659
		c1.91,0.495,4.287,1.107,9.49,1.107c4.859,0,7.233-0.532,9.329-1c1.841-0.411,3.431-0.766,6.572-0.766
		c5.917,0,8.945,5.083,9.067,5.293c0.246,0.43,0.659,0.737,1.14,0.846c0.13,0.03,0.264,0.043,0.395,0.043
		c0.354,0,0.702-0.107,0.999-0.31c2.489-1.711,14.902-10.545,14.902-16.474c0-2.788-1.37-9.385-14.063-10.458
		c-0.947-0.073-1.825,0.641-1.907,1.612c-0.084,0.972,0.637,1.827,1.61,1.911c4.042,0.341,10.825,1.696,10.825,6.935
		c0,2.762-6.582,8.657-11.954,12.56c-1.701-2.088-5.348-5.493-11.015-5.493c-3.532,0-5.47,0.434-7.343,0.852
		c-2.011,0.45-4.09,0.915-8.559,0.915c-4.752,0-6.8-0.528-8.606-0.995c-1.537-0.397-2.99-0.772-5.528-0.772
		c-5.861,0-10.526,3.691-12.582,5.638c-5.408-3.899-12.154-9.909-12.154-12.705c0-4.492,5.152-7.067,14.135-7.067
		c5.714,0,8.521,1.604,11.491,3.3c3.24,1.853,6.59,3.767,13.244,3.767c6.655,0,9.952-1.908,13.139-3.753
		c2.35-1.361,4.569-2.645,8.281-3.108c0.591-0.074,1.104-0.438,1.366-0.972c0.264-0.531,0.241-1.16-0.06-1.675
		c-0.238-0.404-6.004-9.928-22.727-9.928c-6.097,0-11.426,1.265-15.838,3.762c-0.847,0.48-1.146,1.558-0.666,2.408
		c0.478,0.847,1.558,1.149,2.408,0.667c3.872-2.192,8.615-3.304,14.095-3.304c10.001,0,15.449,3.696,17.946,6.123
		c-2.713,0.731-4.668,1.864-6.576,2.966c-2.914,1.687-5.664,3.28-11.37,3.28c-5.714,0-8.521-1.605-11.491-3.301
		c-3.241-1.853-6.59-3.767-13.245-3.767c-15.945,0-17.668,7.414-17.668,10.601C12.556,45.275,24.968,54.109,27.457,55.82
		L27.457,55.82z M27.457,55.82"/>
	<g>
		<defs>
			<rect id="SVGID_1_" x="1.954" y="19.828" width="106.092" height="106.34"/>
		</defs>
		<clipPath id="SVGID_2_">
			<use xlink:href="#SVGID_1_"  overflow="visible"/>
		</clipPath>
		<path clip-path="url(#SVGID_2_)" d="M63.794,65.849c0,0.975,0.789,1.767,1.766,1.767c0.978,0,1.767-0.792,1.767-1.767h1.767
			c0.978,0,1.768-0.792,1.768-1.767c0-0.975-0.79-1.767-1.768-1.767h-7.066c-0.977,0-1.767,0.792-1.767,1.767
			c0,0.976,0.79,1.767,1.767,1.767H63.794z M63.794,65.849"/>
		<path clip-path="url(#SVGID_2_)" d="M107.911,123.725l-1.768-7.068c-1.682-6.728-7.581-10.146-17.526-10.167l0.003-0.005
			c1.07-1.856,1.859-4.79-0.482-8.232c-0.148-0.218-0.34-0.398-0.566-0.529l-8.749-5.129c-0.847-0.497-1.928-0.211-2.418,0.631
			c-0.494,0.842-0.212,1.924,0.629,2.418l8.388,4.915c0.901,1.478,0.939,2.772,0.139,4.159c-0.586,1.014-1.313,1.563-2.321,1.801
			l-6.18-4.738c-0.777-0.591-1.883-0.444-2.479,0.33c-0.593,0.773-0.445,1.883,0.328,2.477l6.173,4.73
			c0.021,1.031-0.332,1.914-1.136,2.719c-0.827,0.826-1.67,1.173-2.709,1.14L72.493,107c-0.595-0.772-1.702-0.92-2.478-0.326
			c-0.773,0.596-0.92,1.706-0.325,2.479l4.739,6.165c-0.248,1-0.816,1.765-1.803,2.333c-1.01,0.585-1.915,0.696-2.91,0.398
			l-2.984-7.191c-0.374-0.903-1.406-1.327-2.311-0.956c-0.899,0.375-1.329,1.408-0.954,2.309l2.982,7.183
			c-0.498,0.905-1.246,1.493-2.345,1.788c-1.131,0.303-2.033,0.175-2.915-0.369l-1.021-7.72c-0.127-0.964-1.009-1.653-1.982-1.52
			c-0.968,0.13-1.649,1.017-1.52,1.985l1.019,7.708c-0.713,0.745-1.588,1.12-2.727,1.12c-1.17,0-2.007-0.355-2.718-1.111
			l1.012-7.721c0.125-0.969-0.557-1.855-1.523-1.982c-0.962-0.122-1.855,0.555-1.981,1.522l-1.009,7.711
			c-0.885,0.534-1.827,0.669-2.925,0.376c-1.128-0.303-1.848-0.864-2.338-1.777l2.974-7.195c0.373-0.902-0.056-1.936-0.958-2.309
			c-0.898-0.369-1.934,0.057-2.309,0.959l-2.971,7.188c-0.992,0.286-1.935,0.173-2.921-0.398c-1.013-0.583-1.56-1.31-1.798-2.319
			l4.736-6.18c0.594-0.777,0.445-1.886-0.329-2.479c-0.773-0.591-1.881-0.443-2.477,0.329l-4.73,6.173
			c-1.034,0.019-1.915-0.333-2.719-1.136c-0.827-0.828-1.17-1.674-1.139-2.711l6.175-4.742c0.772-0.596,0.917-1.705,0.324-2.479
			c-0.594-0.774-1.703-0.919-2.477-0.323l-6.168,4.736c-1.002-0.245-1.763-0.814-2.331-1.801c-0.814-1.409-0.781-2.605,0.147-4.171
			l8.377-4.904c0.842-0.494,1.125-1.576,0.631-2.418c-0.491-0.841-1.574-1.125-2.417-0.633l-8.754,5.126
			c-0.235,0.139-0.436,0.331-0.586,0.56c-0.683,1.047-2.753,4.23-0.46,8.205c0.002,0.005,0.004,0.005,0.004,0.007
			c-9.946,0.021-15.845,3.439-17.527,10.167l-1.766,7.066c-0.238,0.947,0.339,1.908,1.284,2.145
			c0.146,0.037,0.288,0.053,0.432,0.053c0.792,0,1.51-0.535,1.711-1.338l1.767-7.066c1.261-5.045,5.902-7.498,14.187-7.498
			c0.851,0,1.529-0.613,1.697-1.414c0.653,0.531,1.388,0.941,2.201,1.209c0.089,1.771,0.82,3.354,2.188,4.723
			c1.343,1.342,2.951,2.081,4.715,2.182c0.543,1.689,1.659,3.026,3.334,3.992c1.645,0.951,3.389,1.252,5.121,0.891
			c0.96,1.49,2.387,2.494,4.254,2.996c1.835,0.49,3.597,0.328,5.177-0.467c1.312,1.189,2.948,1.791,4.883,1.791
			c1.901,0,3.561-0.613,4.879-1.791c1.58,0.811,3.316,0.967,5.182,0.467c1.833-0.492,3.279-1.514,4.248-2.992
			c1.737,0.371,3.449,0.076,5.126-0.893c1.646-0.949,2.774-2.311,3.328-3.99c1.771-0.088,3.353-0.818,4.722-2.186
			c1.343-1.344,2.081-2.951,2.184-4.718c0.819-0.263,1.555-0.669,2.207-1.202c0.173,0.796,0.848,1.402,1.694,1.402
			c8.286,0,12.926,2.453,14.188,7.498l1.767,7.066c0.201,0.803,0.92,1.338,1.712,1.338c0.142,0,0.286-0.016,0.43-0.053
			C107.571,125.631,108.147,124.67,107.911,123.725L107.911,123.725z M107.911,123.725"/>
	</g>
	<path d="M47.892,62.314h-7.067c-0.975,0-1.767,0.792-1.767,1.767s0.792,1.767,1.767,1.767h1.767c0,0.975,0.792,1.767,1.767,1.767
		c0.975,0,1.766-0.792,1.766-1.767h1.767c0.976,0,1.766-0.792,1.766-1.767C49.659,63.106,48.868,62.314,47.892,62.314L47.892,62.314
		z M47.892,62.314"/>
	<path d="M53.192,85.283c-0.976,0-1.768,0.791-1.768,1.767s0.792,1.767,1.768,1.767h3.533c0.978,0,1.767-0.791,1.767-1.767
		s-0.789-1.767-1.767-1.767H53.192z M53.192,85.283"/>
</g>
<path fill="#090B0F" d="M77.956,31.104c0.337-0.511,0.889-1.125,1.464-1.774c0.805-0.908,1.629-1.797,2.458-2.682
	c1.66-1.773,3.347-3.524,5.043-5.263c3.229-3.311,6.872-6.14,11.029-8.209c1.746-0.868,0.214-3.48-1.528-2.614
	c-4.371,2.175-8.245,5.198-11.643,8.682c-1.761,1.806-3.511,3.624-5.233,5.466c-1.443,1.545-3.035,3.093-4.204,4.866
	C74.266,31.208,76.887,32.726,77.956,31.104L77.956,31.104z"/>
<path fill="#090B0F" d="M80.098,27.36c0.785-6.323,3.786-11.648,8.674-15.687c2.353-1.943,5.071-3.557,8.116-4.091
	c2.845-0.499,6.875,1.574,5.253,4.954c-1.608,3.35-4.973,4.655-8.192,5.86c-1.338,0.501-1.533,2.496,0,2.92
	c0.488,0.135,0.61,0.275,0.557,0.724c-0.025,0.211-0.009,0.137-0.404,0.325c-0.659,0.313-1.602,0.372-2.311,0.534
	c-2.357,0.538-5.036,1.057-7.11,2.36c-1.646,1.034-0.128,3.656,1.528,2.615c2.276-1.431,5.313-1.795,7.897-2.381
	c1.771-0.402,3.192-1.319,3.403-3.228c0.208-1.886-0.961-3.373-2.756-3.87c0,0.973,0,1.947,0,2.92
	c1.684-0.63,3.465-1.156,5.01-2.097c1.682-1.023,3.173-2.483,4.32-4.073c2.642-3.662,1.316-8.23-2.799-10.025
	c-3.846-1.677-8.482,0.118-11.793,2.255c-2.83,1.828-5.403,4.217-7.437,6.898c-2.904,3.833-4.397,8.35-4.985,13.084
	C76.83,29.289,79.859,29.272,80.098,27.36L80.098,27.36z"/>
</svg>
