<?xml version="1.0" encoding="utf-8"?>
<!-- Generator: Adobe Illustrator 16.0.0, SVG Export Plug-In . SVG Version: 6.00 Build 0)  -->
<!DOCTYPE svg PUBLIC "-//W3C//DTD SVG 1.1//EN" "http://www.w3.org/Graphics/SVG/1.1/DTD/svg11.dtd">
<svg version="1.1" id="Слой_1" xmlns="http://www.w3.org/2000/svg" xmlns:xlink="http://www.w3.org/1999/xlink" x="0px" y="0px"
	 width="90px" height="90px" viewBox="0 0 90 90" enable-background="new 0 0 90 90" xml:space="preserve">
<g>
	<path d="M58.669,62.511c0-1.571-0.615-3.046-1.734-4.154c-0.764-0.762-1.695-1.244-2.674-1.499l3.108-3.087
		c1.118-1.108,1.734-2.585,1.734-4.152c0-1.571-0.616-3.044-1.734-4.154c-1.117-1.111-2.605-1.721-4.187-1.721
		s-3.068,0.61-4.188,1.721l-2.673,2.65c-0.262-0.989-0.762-1.905-1.513-2.65c-1.12-1.111-2.605-1.721-4.188-1.721
		c-1.581,0-3.069,0.61-4.186,1.721l-3.721,3.69c-0.263-0.991-0.762-1.908-1.514-2.651c-1.117-1.11-2.604-1.721-4.186-1.721
		c-1.583,0-3.068,0.611-4.186,1.721l-10.5,10.415H2.18c-0.818,0-1.481,0.658-1.481,1.469s0.663,1.468,1.481,1.468h7.875
		c-0.835,2.128-0.414,4.717,1.259,6.379c1.84,1.822,4.586,2.17,6.797,1.088c0.203,1.14,0.726,2.225,1.578,3.066
		c1.826,1.811,4.544,2.165,6.749,1.114c0.221,1.144,0.775,2.197,1.624,3.039c1.826,1.811,4.546,2.166,6.75,1.113
		c0.22,1.145,0.776,2.199,1.624,3.042c1.118,1.108,2.605,1.72,4.186,1.72c1.582,0,3.068-0.611,4.188-1.72l12.125-12.033
		C58.054,65.555,58.669,64.08,58.669,62.511L58.669,62.511z M13.407,64.157c-0.557-0.556-0.866-1.293-0.866-2.078
		c0-0.783,0.309-1.522,0.866-2.077l0.582-0.577l10.933-10.846c0.56-0.556,1.303-0.86,2.093-0.86c0.792,0,1.534,0.305,2.094,0.86
		c1.117,1.109,1.117,3.044,0,4.153L17.595,64.156C16.44,65.302,14.563,65.302,13.407,64.157L13.407,64.157z M21.782,68.313
		c-0.56-0.556-0.868-1.294-0.868-2.079c0-0.784,0.308-1.521,0.868-2.076l16.746-16.616c0.56-0.556,1.303-0.86,2.094-0.86
		c0.792,0,1.535,0.305,2.094,0.86c1.118,1.108,1.118,3.045,0,4.152l-6.512,6.463l-8.142,8.077l-0.003,0.004l-2.089,2.075
		C24.814,69.456,22.936,69.456,21.782,68.313L21.782,68.313z M30.155,72.466c-0.559-0.556-0.867-1.293-0.867-2.078
		c0-0.784,0.306-1.521,0.864-2.074l8.144-8.08L51.09,47.541c0.559-0.556,1.301-0.86,2.093-0.86c0.791,0,1.534,0.305,2.093,0.86
		c1.119,1.108,1.119,3.045,0,4.152l-6.71,6.66c-0.001,0-0.003,0.002-0.005,0.003L34.342,72.464
		C33.188,73.609,31.309,73.609,30.155,72.466L30.155,72.466z M40.622,77.479c-0.791,0-1.534-0.304-2.094-0.86
		c-0.557-0.555-0.865-1.292-0.865-2.077s0.309-1.522,0.865-2.075l12.133-12.038c1.153-1.14,3.029-1.14,4.181,0.004
		c1.119,1.11,1.119,3.045,0,4.156l-12.125,12.03C42.157,77.175,41.413,77.479,40.622,77.479L40.622,77.479z M40.622,77.479"/>
	<path d="M37.706,15.838c0.817,0,1.48-0.656,1.48-1.468c0-0.812-0.663-1.469-1.48-1.469c-10.699,0-17.005,4.431-20.773,7.079
		c-1.099,0.772-2.467,1.733-2.911,1.733H2.18c-0.818,0-1.481,0.658-1.481,1.469c0,0.812,0.663,1.468,1.481,1.468h11.842
		c1.385,0,2.744-0.953,4.623-2.275C22.35,19.772,27.947,15.838,37.706,15.838L37.706,15.838z M37.706,15.838"/>
	<path d="M83.594,58.387c0,0.811,0.662,1.469,1.479,1.469h2.961c0.818,0,1.481-0.658,1.481-1.469s-0.663-1.469-1.481-1.469h-2.961
		C84.256,56.918,83.594,57.576,83.594,58.387L83.594,58.387z M83.594,58.387"/>
	<path d="M39.435,19.431c-2.321,3.454-8.663,14.303-8.975,14.844c-0.493,0.981-0.425,2.07,0.196,3.066
		c1.338,2.147,5.007,3.464,7.05,3.464c2.844,0,4.572-1.98,6.402-4.076c0.634-0.727,1.291-1.478,2.046-2.228l7.402-7.344
		c0.49-0.485,0.953-0.945,1.093-1.008c0.083-0.027,0.398-0.029,0.707-0.029c0.937,0.346,4.063,3.059,6.419,5.395L76.62,47.715
		c0.425,0.426,1.053,1.328,1.053,1.903v13.216c0,1.621-1.328,2.938-2.961,2.938s-2.96-1.317-2.96-2.938v-10.28
		c0-2.018-1.72-3.78-1.915-3.975l-10.361-10.28c-0.579-0.574-1.514-0.574-2.093,0c-0.579,0.573-0.579,1.503,0,2.076L67.739,50.65
		c0.424,0.428,1.052,1.33,1.052,1.903v14.688c0,1.62-1.328,2.938-2.961,2.938s-2.961-1.318-2.961-2.938v-11.75
		c0-0.81-0.663-1.468-1.48-1.468c-0.816,0-1.479,0.658-1.479,1.468v16.155c0,1.621-1.329,2.938-2.961,2.938
		c-0.731,0-1.432-0.267-1.975-0.748c-0.609-0.543-1.545-0.49-2.09,0.113c-0.547,0.605-0.494,1.534,0.114,2.074
		c1.087,0.966,2.489,1.498,3.95,1.498c3.053,0,5.542-2.31,5.858-5.257c0.888,0.528,1.915,0.85,3.022,0.85
		c3.053,0,5.542-2.31,5.859-5.255c0.888,0.527,1.914,0.849,3.022,0.849c3.266,0,5.922-2.634,5.922-5.873V49.618
		c0-2.019-1.721-3.78-1.866-3.926L63.916,29.486c-6.354-6.304-7.93-6.304-8.448-6.304c-1.963,0-2.334,0.238-4.007,1.899
		l-7.401,7.343c-0.832,0.823-1.553,1.652-2.191,2.382c-1.756,2.012-2.739,3.062-4.164,3.062c-1.867,0-4.598-1.58-4.64-2.2
		c0.064-0.111,6.562-11.229,8.833-14.609c2.551-3.797,6.569-8.158,15.051-8.158c6.354,0,14.968,4.957,20.665,8.236
		c4.072,2.344,6.091,3.471,7.459,3.471h2.961c0.817,0,1.48-0.658,1.48-1.469s-0.663-1.469-1.48-1.469H85.09
		c-0.752-0.06-3.535-1.66-5.988-3.073C72.77,14.955,64.1,9.964,56.948,9.964C46.95,9.964,42.165,15.368,39.435,19.431L39.435,19.431
		z M39.435,19.431"/>
</g>
</svg>
