<?xml version="1.0" encoding="utf-8"?>
<!-- Generator: Adobe Illustrator 16.0.0, SVG Export Plug-In . SVG Version: 6.00 Build 0)  -->
<!DOCTYPE svg PUBLIC "-//W3C//DTD SVG 1.1//EN" "http://www.w3.org/Graphics/SVG/1.1/DTD/svg11.dtd">
<svg version="1.1" id="Слой_1" xmlns="http://www.w3.org/2000/svg" xmlns:xlink="http://www.w3.org/1999/xlink" x="0px" y="0px"
	 width="80px" height="80px" viewBox="0 0 80 80" enable-background="new 0 0 80 80" xml:space="preserve">
<g>
	<path d="M17.837,52.237l-1.068,0.616c-0.591,0.343-0.794,1.097-0.452,1.688c0.229,0.396,0.643,0.616,1.07,0.616
		c0.21,0,0.421-0.054,0.616-0.166l1.067-0.616c0.59-0.341,0.794-1.097,0.452-1.687C19.181,52.099,18.426,51.895,17.837,52.237
		L17.837,52.237z M17.837,52.237"/>
	<path d="M27.957,61.349c-0.589-0.342-1.346-0.139-1.687,0.451l-0.617,1.068c-0.341,0.592-0.139,1.345,0.452,1.686
		c0.194,0.113,0.406,0.166,0.616,0.166c0.427,0,0.842-0.221,1.07-0.617l0.617-1.068C28.75,62.444,28.548,61.688,27.957,61.349
		L27.957,61.349z M27.957,61.349"/>
	<path d="M19.173,27.244l-1.068-0.618c-0.591-0.341-1.345-0.139-1.686,0.452c-0.342,0.591-0.14,1.346,0.451,1.686l1.069,0.617
		c0.193,0.112,0.406,0.165,0.616,0.165c0.427,0,0.842-0.221,1.07-0.617C19.967,28.34,19.764,27.584,19.173,27.244L19.173,27.244z
		 M19.173,27.244"/>
	<path d="M19.018,40.976c0-0.683-0.551-1.235-1.233-1.235h-3.701c-0.681,0-1.234,0.553-1.234,1.235c0,0.68,0.552,1.233,1.234,1.233
		h3.701C18.465,42.209,19.018,41.657,19.018,40.976L19.018,40.976z M19.018,40.976"/>
	<path d="M40,8.884c-17.695,0-32.09,14.396-32.09,32.09S22.305,73.063,40,73.063c17.694,0,32.09-14.396,32.09-32.089
		S57.694,8.884,40,8.884L40,8.884z M40,70.595c-16.333,0-29.621-13.289-29.621-29.621c0-16.333,13.289-29.621,29.621-29.621
		c16.332,0,29.621,13.288,29.621,29.621C69.621,57.306,56.332,70.595,40,70.595L40,70.595z M40,70.595"/>
	<path d="M52.043,20.599c0.194,0.112,0.406,0.166,0.616,0.166c0.427,0,0.841-0.221,1.069-0.618l0.617-1.068
		c0.341-0.591,0.139-1.345-0.451-1.686c-0.591-0.342-1.344-0.14-1.686,0.451l-0.617,1.069C51.25,19.503,51.452,20.259,52.043,20.599
		L52.043,20.599z M52.043,20.599"/>
	<path d="M61.547,29.875c0.209,0,0.422-0.053,0.615-0.166l1.068-0.617c0.591-0.342,0.793-1.096,0.451-1.687
		c-0.342-0.59-1.097-0.794-1.686-0.451l-1.068,0.617c-0.59,0.341-0.793,1.096-0.451,1.686
		C60.705,29.654,61.119,29.875,61.547,29.875L61.547,29.875z M61.547,29.875"/>
	<path d="M70.854,3.947H9.145c-3.402,0-6.171,2.768-6.171,6.171v61.711C2.974,75.231,5.742,78,9.145,78h56.773
		c0.683,0,1.234-0.554,1.234-1.234c0-0.682-0.552-1.234-1.234-1.234H9.145c-2.041,0-3.703-1.661-3.703-3.702V10.118
		c0-2.041,1.662-3.703,3.703-3.703h61.711c2.041,0,3.702,1.662,3.702,3.703v61.711c0,2.041-1.661,3.702-3.702,3.702
		c-0.684,0-1.234,0.553-1.234,1.234c0,0.681,0.551,1.234,1.234,1.234c3.402,0,6.171-2.769,6.171-6.172v-61.71
		C77.026,6.715,74.258,3.947,70.854,3.947L70.854,3.947z M70.854,3.947"/>
	<path d="M63.129,53.183l-1.068-0.617c-0.59-0.342-1.346-0.14-1.686,0.451c-0.344,0.592-0.139,1.346,0.451,1.688l1.068,0.617
		c0.193,0.111,0.406,0.164,0.616,0.164c0.427,0,0.842-0.221,1.069-0.617C63.922,54.278,63.72,53.522,63.129,53.183L63.129,53.183z
		 M63.129,53.183"/>
	<path d="M57.279,39.739H43.475c-0.372-1.046-1.194-1.869-2.24-2.242V15.055c0-0.681-0.553-1.234-1.234-1.234
		c-0.682,0-1.234,0.553-1.234,1.234v22.442c-1.046,0.373-1.868,1.196-2.24,2.242h-1.462c-0.683,0-1.234,0.553-1.234,1.234
		c0,0.681,0.552,1.234,1.234,1.234h1.462c0.372,1.045,1.194,1.868,2.24,2.239v1.463c0,0.682,0.552,1.234,1.234,1.234
		c0.682,0,1.234-0.553,1.234-1.234v-1.462c1.046-0.372,1.868-1.195,2.24-2.24h13.805c0.682,0,1.233-0.554,1.233-1.234
		C58.513,40.292,57.961,39.739,57.279,39.739L57.279,39.739z M40,42.208c-0.682,0-1.234-0.555-1.234-1.234
		c0-0.681,0.553-1.234,1.234-1.234c0.681,0,1.234,0.554,1.234,1.234C41.234,41.653,40.681,42.208,40,42.208L40,42.208z M40,42.208"
		/>
	<path d="M65.916,39.739h-3.702c-0.681,0-1.233,0.553-1.233,1.234c0,0.681,0.551,1.234,1.233,1.234h3.702
		c0.681,0,1.234-0.553,1.234-1.234S66.598,39.739,65.916,39.739L65.916,39.739z M65.916,39.739"/>
	<path d="M40,61.956c-0.683,0-1.234,0.552-1.234,1.232v3.703c0,0.682,0.551,1.234,1.234,1.234c0.682,0,1.234-0.553,1.234-1.234
		v-3.703C41.234,62.508,40.682,61.956,40,61.956L40,61.956z M40,61.956"/>
	<path d="M53.401,61.901c-0.343-0.59-1.098-0.794-1.687-0.451c-0.59,0.341-0.793,1.096-0.451,1.686l0.616,1.07
		c0.229,0.396,0.644,0.615,1.071,0.615c0.209,0,0.421-0.053,0.615-0.166c0.592-0.339,0.793-1.095,0.451-1.685L53.401,61.901z
		 M53.401,61.901"/>
	<path d="M28.119,17.742c-0.342-0.589-1.098-0.793-1.686-0.45c-0.591,0.341-0.794,1.096-0.452,1.686l0.617,1.067
		c0.229,0.396,0.644,0.617,1.07,0.617c0.209,0,0.422-0.053,0.616-0.166c0.59-0.342,0.792-1.096,0.452-1.687L28.119,17.742z
		 M28.119,17.742"/>
</g>
</svg>
