<?xml version="1.0" encoding="utf-8"?>
<!-- Generator: Adobe Illustrator 16.0.0, SVG Export Plug-In . SVG Version: 6.00 Build 0)  -->
<!DOCTYPE svg PUBLIC "-//W3C//DTD SVG 1.1//EN" "http://www.w3.org/Graphics/SVG/1.1/DTD/svg11.dtd">
<svg version="1.1" id="Слой_1" xmlns="http://www.w3.org/2000/svg" xmlns:xlink="http://www.w3.org/1999/xlink" x="0px" y="0px"
	 width="80px" height="80px" viewBox="0 0 80 80" enable-background="new 0 0 80 80" xml:space="preserve">
<g>
	<path d="M40,22.593c-9.599,0-17.407,7.809-17.407,17.407c0,9.6,7.809,17.407,17.407,17.407c0.686,0,1.243-0.558,1.243-1.243
		c0-0.688-0.558-1.244-1.243-1.244c-8.227,0-14.92-6.693-14.92-14.92c0-8.227,6.693-14.92,14.92-14.92
		c8.227,0,14.92,6.693,14.92,14.92c0,6.499-4.15,12.204-10.33,14.199c-0.652,0.213-1.012,0.914-0.8,1.567
		c0.211,0.653,0.908,1.009,1.566,0.801C52.564,54.238,57.407,47.58,57.407,40C57.407,30.401,49.598,22.593,40,22.593L40,22.593z
		 M40,22.593"/>
	<path d="M40,35.026c-2.744,0-4.974,2.231-4.974,4.974c0,2.742,2.231,4.973,4.974,4.973c2.742,0,4.973-2.23,4.973-4.973
		C44.973,37.257,42.742,35.026,40,35.026L40,35.026z M40,42.486c-1.372,0-2.487-1.115-2.487-2.486c0-1.372,1.116-2.487,2.487-2.487
		c1.371,0,2.486,1.116,2.486,2.487C42.486,41.371,41.371,42.486,40,42.486L40,42.486z M40,42.486"/>
	<path d="M75.084,32.569l-6.603-1.465c-0.533-1.714-1.222-3.374-2.049-4.954l3.659-5.756c0.736-1.288,0.67-2.383-0.2-3.253
		l-7.034-7.034c-0.57-0.571-1.189-0.69-1.607-0.69c-0.604,0-1.144,0.234-1.695,0.521l-5.705,3.63
		c-1.58-0.83-3.241-1.518-4.953-2.052l-1.48-6.658c-0.39-1.433-1.212-2.159-2.443-2.16h-9.946c-1.741,0-2.238,1.527-2.457,2.217
		l-1.466,6.601c-1.715,0.535-3.375,1.222-4.953,2.052l-5.756-3.661c-0.383-0.219-0.968-0.511-1.623-0.511
		c-0.609,0-1.157,0.238-1.631,0.71l-7.032,7.034c-1.234,1.231-0.505,2.662-0.172,3.305l3.632,5.705
		c-0.83,1.58-1.518,3.241-2.05,4.952l-6.66,1.48c-1.433,0.392-2.16,1.214-2.16,2.443v9.946c0,1.741,1.527,2.238,2.217,2.458
		l6.603,1.467c0.534,1.71,1.221,3.371,2.05,4.952l-3.661,5.754c-0.738,1.288-0.671,2.384,0.2,3.256l7.033,7.033
		c0.572,0.57,1.189,0.689,1.608,0.689c0.604,0,1.144-0.232,1.696-0.521l5.705-3.63c1.58,0.829,3.24,1.517,4.954,2.05l1.479,6.659
		c0.391,1.432,1.212,2.16,2.443,2.16h9.946c1.74,0,2.238-1.527,2.458-2.217l1.466-6.602c1.712-0.533,3.373-1.222,4.953-2.05
		l5.754,3.66c0.385,0.219,0.971,0.511,1.624,0.511c0.61,0,1.161-0.239,1.632-0.712l7.032-7.032c1.232-1.232,0.504-2.663,0.17-3.305
		l-3.63-5.705c0.829-1.581,1.518-3.242,2.05-4.952l6.659-1.482c1.434-0.39,2.16-1.211,2.16-2.442v-9.946
		C77.301,33.286,75.772,32.789,75.084,32.569L75.084,32.569z M74.813,44.91c-0.057,0.024-0.145,0.059-0.269,0.092l-7.314,1.626
		c-0.445,0.1-0.802,0.435-0.927,0.873c-0.574,2.019-1.382,3.97-2.398,5.796c-0.223,0.398-0.207,0.887,0.037,1.271l3.963,6.219
		c0.095,0.185,0.144,0.303,0.167,0.376l-6.929,6.925c-0.059-0.023-0.141-0.061-0.254-0.123l-6.322-4.023
		c-0.384-0.244-0.873-0.258-1.271-0.037c-1.824,1.018-3.771,1.824-5.794,2.398c-0.438,0.125-0.774,0.481-0.872,0.927l-1.595,7.198
		c-0.064,0.199-0.114,0.317-0.149,0.386l-9.795-0.002c-0.025-0.058-0.058-0.144-0.093-0.268l-1.625-7.314
		c-0.098-0.445-0.434-0.802-0.873-0.927c-2.021-0.575-3.971-1.383-5.793-2.398c-0.399-0.223-0.886-0.207-1.273,0.036l-6.217,3.964
		c-0.187,0.096-0.306,0.143-0.377,0.168l-6.925-6.93c0.022-0.057,0.06-0.141,0.125-0.254l4.021-6.32
		c0.245-0.386,0.26-0.873,0.038-1.271c-1.018-1.828-1.824-3.777-2.398-5.796c-0.126-0.438-0.481-0.773-0.926-0.873l-7.199-1.594
		c-0.199-0.064-0.317-0.114-0.386-0.147l0.001-9.797c0.058-0.025,0.143-0.059,0.269-0.094l7.314-1.625
		c0.445-0.1,0.8-0.434,0.926-0.873c0.574-2.021,1.382-3.97,2.4-5.795c0.222-0.399,0.208-0.888-0.038-1.273l-3.965-6.217
		c-0.095-0.185-0.141-0.302-0.166-0.375l6.928-6.925c0.059,0.022,0.142,0.06,0.255,0.123l6.323,4.023
		c0.385,0.245,0.874,0.259,1.273,0.036c1.82-1.016,3.769-1.823,5.792-2.4c0.439-0.125,0.775-0.48,0.873-0.926l1.594-7.199
		c0.065-0.198,0.114-0.315,0.148-0.384l9.795,0.001c0.025,0.058,0.058,0.143,0.093,0.268l1.627,7.316
		c0.098,0.445,0.434,0.8,0.872,0.926c2.021,0.576,3.972,1.382,5.796,2.398c0.4,0.223,0.886,0.209,1.273-0.036l6.215-3.964
		c0.188-0.096,0.306-0.143,0.378-0.168l6.923,6.928c-0.021,0.059-0.059,0.142-0.123,0.255l-4.021,6.323
		c-0.244,0.384-0.26,0.873-0.037,1.272c1.017,1.821,1.823,3.771,2.398,5.794c0.125,0.439,0.481,0.774,0.927,0.873l7.2,1.596
		c0.197,0.063,0.315,0.113,0.384,0.147L74.813,44.91z M74.813,44.91"/>
</g>
</svg>
