<?xml version="1.0" encoding="utf-8"?>
<!-- Generator: Adobe Illustrator 16.0.0, SVG Export Plug-In . SVG Version: 6.00 Build 0)  -->
<!DOCTYPE svg PUBLIC "-//W3C//DTD SVG 1.1//EN" "http://www.w3.org/Graphics/SVG/1.1/DTD/svg11.dtd">
<svg version="1.1" id="Слой_1" xmlns="http://www.w3.org/2000/svg" xmlns:xlink="http://www.w3.org/1999/xlink" x="0px" y="0px"
	 width="110px" height="110px" viewBox="0 0 110 110" enable-background="new 0 0 110 110" xml:space="preserve">
<g>
	<path d="M40.802,47.836c-0.977,0-1.77,0.792-1.77,1.77c0,0.976,0.793,1.769,1.77,1.769h1.77c0,0.978,0.792,1.771,1.77,1.771
		c0.977,0,1.77-0.793,1.77-1.771h1.769c0.978,0,1.77-0.792,1.77-1.769c0-0.978-0.792-1.77-1.77-1.77H40.802z M40.802,47.836"/>
	<path d="M62.039,47.836c-0.977,0-1.77,0.792-1.77,1.77c0,0.976,0.793,1.769,1.77,1.769h1.77c0,0.978,0.793,1.771,1.77,1.771
		s1.77-0.793,1.77-1.771h1.771c0.976,0,1.769-0.792,1.769-1.769c0-0.978-0.793-1.77-1.769-1.77H62.039z M62.039,47.836"/>
	<g>
		<defs>
			<rect id="SVGID_1_" x="1.867" y="1.742" width="106.267" height="106.516"/>
		</defs>
		<clipPath id="SVGID_2_">
			<use xlink:href="#SVGID_1_"  overflow="visible"/>
		</clipPath>
		<path clip-path="url(#SVGID_2_)" d="M26.645,15.653v23.334c0,0.978,0.793,1.771,1.769,1.771h46.014
			c0.976,0,1.769-0.793,1.769-1.771c0-0.977-0.793-1.77-1.769-1.77H30.184V17.519l13.176,8.782c0.779,0.521,1.832,0.341,2.398-0.41
			L54.96,13.62l9.203,12.271c0.564,0.752,1.619,0.931,2.397,0.41l13.176-8.782v21.468c0,0.978,0.793,1.771,1.77,1.771
			s1.77-0.793,1.77-1.771V15.655c2.057-0.734,3.539-2.679,3.539-4.983c0-2.928-2.381-5.309-5.309-5.309
			c-2.927,0-5.309,2.381-5.309,5.309c0,1.513,0.645,2.874,1.665,3.842l-11.874,7.914l-8.138-10.852
			c1.453-0.949,2.419-2.582,2.419-4.443c0-2.928-2.382-5.309-5.31-5.309c-2.927,0-5.309,2.381-5.309,5.309
			c0,1.861,0.966,3.495,2.419,4.443l-8.138,10.852l-11.874-7.914c1.021-0.968,1.665-2.329,1.665-3.842
			c0-2.928-2.382-5.309-5.309-5.309c-2.928,0-5.309,2.381-5.309,5.309C23.105,12.976,24.588,14.92,26.645,15.653L26.645,15.653z
			 M81.506,8.901c0.975,0,1.77,0.795,1.77,1.77s-0.795,1.771-1.77,1.771c-0.976,0-1.77-0.795-1.77-1.771S80.53,8.901,81.506,8.901
			L81.506,8.901z M54.96,5.362c0.976,0,1.771,0.794,1.771,1.77c0,0.975-0.795,1.769-1.771,1.769c-0.975,0-1.77-0.794-1.77-1.769
			C53.19,6.157,53.985,5.362,54.96,5.362L54.96,5.362z M28.415,8.901c0.975,0,1.769,0.795,1.769,1.77s-0.794,1.771-1.769,1.771
			c-0.975,0-1.77-0.795-1.77-1.771S27.44,8.901,28.415,8.901L28.415,8.901z M28.415,8.901"/>
		<path clip-path="url(#SVGID_2_)" d="M107.962,105.678c-1.759-5.271-6.394-10.188-6.591-10.395
			c-0.674-0.707-1.795-0.733-2.503-0.063c-0.708,0.674-0.735,1.794-0.063,2.502c0.042,0.045,4.286,4.545,5.797,9.073
			c0.248,0.741,0.94,1.212,1.679,1.212c0.188,0,0.375-0.031,0.561-0.092C107.769,107.607,108.271,106.604,107.962,105.678
			L107.962,105.678z M107.962,105.678"/>
	</g>
	<path d="M96.455,90.498c-3.602-1.803-10.816-3.729-20.258-3.729c-0.977,0-1.77,0.793-1.77,1.77s0.793,1.77,1.77,1.77
		c6.849,0,12.442,1.086,16.051,2.294c-11.186,8.7-23.909,11.188-27.488,11.739c-3.917-5.043-9.014-6.787-9.24-6.863
		c-0.365-0.121-0.754-0.121-1.118,0c-0.227,0.076-5.324,1.82-9.24,6.863c-3.582-0.551-16.305-3.039-27.488-11.739
		c3.608-1.208,9.202-2.294,16.05-2.294c0.977,0,1.77-0.793,1.77-1.77s-0.793-1.77-1.77-1.77c-9.441,0-16.656,1.926-20.258,3.729
		c-0.526,0.26-0.89,0.771-0.964,1.355c-0.074,0.585,0.146,1.168,0.589,1.557c14.418,12.616,31.956,14.513,32.695,14.588
		c0.634,0.064,1.266-0.223,1.632-0.752c2.617-3.77,6.187-5.594,7.545-6.186c1.361,0.586,4.902,2.389,7.539,6.186
		c0.334,0.479,0.879,0.76,1.453,0.76c0.062,0,0.119-0.001,0.18-0.008c0.739-0.075,18.277-1.972,32.695-14.588
		c0.443-0.389,0.663-0.973,0.59-1.557C97.346,91.268,96.982,90.758,96.455,90.498L96.455,90.498z M96.455,90.498"/>
	<path d="M55.013,104.467h-0.017c-0.977,0-1.761,0.793-1.761,1.77s0.8,1.77,1.778,1.77c0.978,0,1.771-0.793,1.771-1.77
		S55.99,104.467,55.013,104.467L55.013,104.467z M55.013,104.467"/>
	<g>
		<defs>
			<rect id="SVGID_3_" x="1.867" y="1.742" width="106.267" height="106.516"/>
		</defs>
		<clipPath id="SVGID_4_">
			<use xlink:href="#SVGID_3_"  overflow="visible"/>
		</clipPath>
		<path clip-path="url(#SVGID_4_)" d="M53.19,72.611h3.541c0.977,0,1.769-0.793,1.769-1.77s-0.792-1.77-1.769-1.77H53.19
			c-0.976,0-1.769,0.793-1.769,1.77S52.214,72.611,53.19,72.611L53.19,72.611z M53.19,72.611"/>
		<path clip-path="url(#SVGID_4_)" d="M8.548,95.283c-0.196,0.207-4.831,5.124-6.59,10.394c-0.309,0.928,0.193,1.929,1.121,2.239
			c0.185,0.061,0.372,0.092,0.559,0.092c0.739,0,1.432-0.471,1.679-1.212c1.504-4.511,5.756-9.028,5.799-9.073
			c0.671-0.71,0.641-1.83-0.067-2.502C10.342,94.548,9.222,94.578,8.548,95.283L8.548,95.283z M8.548,95.283"/>
	</g>
	<path d="M27.271,61.87l2.983,5.797c0.028,0.131,0.053,0.259,0.111,0.382C32.243,84.213,41.401,93.85,54.96,93.85
		c10.056,0,22.472-4.53,24.683-26.041l3.014-5.941c2.377-0.527,4.158-2.65,4.158-5.184v-3.539c0-2.493-1.389-4.389-3.539-5.053
		v-2.026c0-0.977-0.793-1.77-1.77-1.77s-1.77,0.792-1.77,1.77v3.54c0,0.976,0.793,1.769,1.77,1.769c1.176,0,1.77,0.595,1.77,1.771
		v3.539c0,0.976-0.795,1.771-1.77,1.771c-0.668,0-1.276,0.374-1.578,0.968l-3.487,6.873c-2.273,2.021-7.104,3.514-10.057,4.229
		c-1.455-4.271-4.778-8.53-11.424-8.53s-9.969,4.26-11.424,8.53c-2.913-0.705-7.652-2.168-9.964-4.146l-3.585-6.963
		c-0.303-0.588-0.911-0.96-1.574-0.96c-0.975,0-1.77-0.795-1.77-1.771v-3.539c0-1.093,0.678-1.771,1.77-1.771
		c0.977,0,1.77-0.792,1.77-1.769v-3.54c0-0.977-0.793-1.77-1.77-1.77c-0.978,0-1.77,0.792-1.77,1.77v2.049
		c-2.103,0.697-3.539,2.629-3.539,5.03v3.539C23.105,59.221,24.891,61.346,27.271,61.87L27.271,61.87z M42.728,73.973
		c-0.104,0.781-0.156,1.52-0.156,2.178c0,0.977,0.79,1.767,1.767,1.77h0.003c0.973,0,1.766-0.789,1.77-1.766
		c0.001-0.433,0.147-10.621,8.848-10.621c8.7,0,8.847,10.188,8.849,10.617c0,0.979,0.793,1.771,1.77,1.771s1.77-0.792,1.77-1.771
		c0-0.658-0.051-1.396-0.156-2.178c2.055-0.488,5.484-1.441,8.412-2.932C73.329,83.816,66.41,90.309,54.96,90.309
		c-10.601,0-18.061-7.111-20.516-19.207C37.345,72.555,40.703,73.492,42.728,73.973L42.728,73.973z M42.728,73.973"/>
</g>
</svg>
