<?xml version="1.0" encoding="utf-8"?>
<!-- Generator: Adobe Illustrator 16.0.0, SVG Export Plug-In . SVG Version: 6.00 Build 0)  -->
<!DOCTYPE svg PUBLIC "-//W3C//DTD SVG 1.1//EN" "http://www.w3.org/Graphics/SVG/1.1/DTD/svg11.dtd">
<svg version="1.1" id="Слой_1" xmlns="http://www.w3.org/2000/svg" xmlns:xlink="http://www.w3.org/1999/xlink" x="0px" y="0px"
	 width="80px" height="80px" viewBox="0 0 80 80" enable-background="new 0 0 80 80" xml:space="preserve">
<g>
	<path d="M18.951,40.146c0-0.684-0.555-1.239-1.238-1.239h-3.712c-0.683,0-1.237,0.555-1.237,1.239c0,0.683,0.555,1.237,1.237,1.237
		h3.712C18.396,41.384,18.951,40.83,18.951,40.146L18.951,40.146z M18.951,40.146"/>
	<path d="M17.316,54.373c0.21,0,0.423-0.053,0.618-0.166l1.07-0.619c0.592-0.342,0.795-1.099,0.454-1.691
		c-0.343-0.593-1.1-0.797-1.693-0.453l-1.071,0.619c-0.592,0.344-0.794,1.1-0.452,1.692C16.472,54.152,16.888,54.373,17.316,54.373
		L17.316,54.373z M17.316,54.373"/>
	<path d="M19.107,26.371l-1.072-0.619c-0.594-0.342-1.35-0.139-1.691,0.453c-0.342,0.593-0.139,1.35,0.453,1.691l1.072,0.619
		c0.196,0.113,0.409,0.166,0.618,0.166c0.429,0,0.844-0.222,1.073-0.619C19.902,27.471,19.699,26.713,19.107,26.371L19.107,26.371z
		 M19.107,26.371"/>
	<path d="M21.427,74.813H4.094c-0.684,0-1.238,0.555-1.238,1.238c0,0.683,0.555,1.238,1.238,1.238h17.333
		c0.684,0,1.239-0.555,1.239-1.238S22.111,74.813,21.427,74.813L21.427,74.813z M21.427,74.813"/>
	<path d="M21.427,69.859H4.094c-0.684,0-1.238,0.556-1.238,1.238c0,0.684,0.555,1.238,1.238,1.238h17.333
		c0.684,0,1.239-0.555,1.239-1.238C22.666,70.415,22.111,69.859,21.427,69.859L21.427,69.859z M21.427,69.859"/>
	<path d="M7.939,57.565c0.188,0,0.379-0.042,0.558-0.133c0.611-0.31,0.854-1.054,0.546-1.664
		c-2.462-4.869-3.712-10.127-3.712-15.624C5.332,21.028,20.884,5.476,40,5.476c19.115,0,34.668,15.552,34.668,34.733
		c0,1.402,0,3.522-0.35,4.939c-0.166,0.663,0.24,1.334,0.902,1.498c0.662,0.166,1.335-0.24,1.5-0.904
		c0.424-1.709,0.424-4.011,0.424-5.598C77.145,19.663,60.481,3,40,3S2.855,19.663,2.855,40.145c0,5.889,1.338,11.521,3.978,16.74
		C7.052,57.317,7.487,57.565,7.939,57.565L7.939,57.565z M7.939,57.565"/>
	<path d="M70.627,43.006c0.676,0.13,1.319-0.316,1.445-0.986c0.159-0.835,0.121-1.783,0.119-1.875
		C72.191,22.395,57.75,7.953,40,7.953S7.808,22.395,7.808,40.145c0,5.945,1.634,11.754,4.725,16.797
		c0.235,0.383,0.641,0.592,1.058,0.592c0.22,0,0.443-0.059,0.645-0.184c0.584-0.357,0.767-1.119,0.409-1.702
		c-2.852-4.653-4.359-10.015-4.359-15.503c0-16.386,13.33-29.715,29.715-29.715s29.715,13.33,29.717,29.658
		c-0.003,0.045-0.004,0.112-0.002,0.157c0.01,0.192,0.014,0.846-0.075,1.314C69.512,42.23,69.954,42.879,70.627,43.006
		L70.627,43.006z M70.627,43.006"/>
	<path d="M62.066,26.082l-1.071,0.619c-0.592,0.341-0.795,1.1-0.453,1.691c0.229,0.397,0.646,0.619,1.073,0.619
		c0.211,0,0.424-0.053,0.619-0.166l1.07-0.619c0.593-0.343,0.795-1.1,0.453-1.693C63.416,25.942,62.657,25.737,62.066,26.082
		L62.066,26.082z M62.066,26.082"/>
	<path d="M26.389,16.387c-0.591,0.342-0.793,1.1-0.452,1.692l0.619,1.07c0.229,0.397,0.645,0.619,1.073,0.619
		c0.21,0,0.424-0.053,0.618-0.166c0.592-0.343,0.795-1.1,0.454-1.693l-0.619-1.071C27.738,16.247,26.981,16.044,26.389,16.387
		L26.389,16.387z M26.389,16.387"/>
	<path d="M52.248,16.941l-0.62,1.073c-0.341,0.591-0.138,1.35,0.454,1.691c0.195,0.113,0.406,0.166,0.617,0.166
		c0.429,0,0.844-0.222,1.074-0.62l0.619-1.072c0.341-0.593,0.139-1.35-0.453-1.692C53.344,16.145,52.588,16.349,52.248,16.941
		L52.248,16.941z M52.248,16.941"/>
	<path d="M46.19,74.813H31.333c-0.683,0-1.238,0.555-1.238,1.238c0,0.683,0.555,1.238,1.238,1.238H46.19
		c0.685,0,1.239-0.556,1.239-1.238C47.43,75.367,46.875,74.813,46.19,74.813L46.19,74.813z M46.19,74.813"/>
	<path d="M31.333,72.336h10.195c0.686,0,1.238-0.555,1.238-1.237c0-0.684-0.553-1.239-1.238-1.239H31.333
		c-0.683,0-1.238,0.556-1.238,1.239C30.095,71.781,30.649,72.336,31.333,72.336L31.333,72.336z M31.333,72.336"/>
	<path d="M26.38,59.955c-0.684,0-1.238,0.555-1.238,1.237v14.858c0,0.683,0.555,1.238,1.238,1.238c0.683,0,1.238-0.556,1.238-1.238
		V61.192C27.619,60.51,27.064,59.955,26.38,59.955L26.38,59.955z M26.38,59.955"/>
	<path d="M59.811,53.764c1.365,0,2.477,1.111,2.477,2.477c0,0.684,0.555,1.238,1.238,1.238c0.683,0,1.237-0.555,1.237-1.238
		c0-2.301-1.585-4.223-3.715-4.776v-0.177c0-0.683-0.555-1.237-1.237-1.237c-0.684,0-1.238,0.555-1.238,1.237v0.177
		c-2.13,0.554-3.715,2.476-3.715,4.776c0,2.731,2.222,4.953,4.953,4.953c1.365,0,2.477,1.11,2.477,2.477
		c0,1.365-1.111,2.476-2.477,2.476c-1.366,0-2.477-1.11-2.477-2.476c0-0.684-0.555-1.238-1.238-1.238s-1.238,0.555-1.238,1.238
		c0,2.3,1.585,4.223,3.715,4.775v0.176c0,0.684,0.555,1.238,1.238,1.238c0.683,0,1.237-0.555,1.237-1.238v-0.176
		c2.13-0.553,3.715-2.476,3.715-4.775c0-2.732-2.222-4.953-4.952-4.953c-1.366,0-2.477-1.11-2.477-2.477
		C57.334,54.875,58.444,53.764,59.811,53.764L59.811,53.764z M59.811,53.764"/>
	<path d="M59.811,42.621c-9.559,0-17.334,7.775-17.334,17.334s7.775,17.334,17.334,17.334c9.558,0,17.334-7.775,17.334-17.334
		S69.369,42.621,59.811,42.621L59.811,42.621z M59.811,74.813c-8.193,0-14.858-6.665-14.858-14.857
		c0-8.193,6.665-14.858,14.858-14.858c8.192,0,14.857,6.665,14.857,14.858C74.668,68.147,68.003,74.813,59.811,74.813L59.811,74.813
		z M59.811,74.813"/>
	<path d="M21.427,59.955H4.094c-0.684,0-1.238,0.555-1.238,1.237c0,0.685,0.555,1.239,1.238,1.239h17.333
		c0.684,0,1.239-0.555,1.239-1.239C22.666,60.51,22.111,59.955,21.427,59.955L21.427,59.955z M21.427,59.955"/>
	<path d="M40,43.859c1.611,0,2.973-1.038,3.486-2.477h1.466c0.684,0,1.238-0.555,1.238-1.238s-0.555-1.238-1.238-1.238h-1.466
		c-0.374-1.049-1.199-1.875-2.248-2.249V14.144c0-0.684-0.555-1.238-1.238-1.238s-1.238,0.555-1.238,1.238v22.514
		c-1.049,0.375-1.875,1.2-2.249,2.249H22.666c-0.684,0-1.239,0.555-1.239,1.238s0.555,1.238,1.239,1.238h13.848
		C37.027,42.821,38.388,43.859,40,43.859L40,43.859z M40,38.906c0.682,0,1.238,0.556,1.238,1.238c0,0.682-0.557,1.238-1.238,1.238
		c-0.682,0-1.238-0.557-1.238-1.238C38.762,39.462,39.318,38.906,40,38.906L40,38.906z M40,38.906"/>
	<path d="M21.427,64.907H4.094c-0.684,0-1.238,0.555-1.238,1.238s0.555,1.238,1.238,1.238h17.333c0.684,0,1.239-0.555,1.239-1.238
		S22.111,64.907,21.427,64.907L21.427,64.907z M21.427,64.907"/>
	<path d="M31.333,67.384h8.048c0.684,0,1.238-0.555,1.238-1.238s-0.555-1.238-1.238-1.238h-8.048c-0.683,0-1.238,0.555-1.238,1.238
		S30.649,67.384,31.333,67.384L31.333,67.384z M31.333,67.384"/>
	<path d="M31.333,62.432h7.429c0.684,0,1.238-0.555,1.238-1.238s-0.555-1.238-1.238-1.238h-7.429c-0.683,0-1.238,0.555-1.238,1.238
		S30.649,62.432,31.333,62.432L31.333,62.432z M31.333,62.432"/>
</g>
</svg>
