<?xml version="1.0" encoding="utf-8"?>
<!-- Generator: Adobe Illustrator 16.0.0, SVG Export Plug-In . SVG Version: 6.00 Build 0)  -->
<!DOCTYPE svg PUBLIC "-//W3C//DTD SVG 1.1//EN" "http://www.w3.org/Graphics/SVG/1.1/DTD/svg11.dtd">
<svg version="1.1" id="Layer_1" xmlns="http://www.w3.org/2000/svg" xmlns:xlink="http://www.w3.org/1999/xlink" x="0px" y="0px"
	 width="110px" height="99px" viewBox="0 0 110 99" enable-background="new 0 0 110 99" xml:space="preserve">
<g>
	<path d="M54.27,58.199c-0.049,0.047-1.235,1.13-3.626,1.13c-2.355,0-3.542-1.053-3.624-1.128c-0.615-0.6-1.6-0.595-2.209,0.016
		c-0.614,0.615-0.614,1.609,0,2.226c0.208,0.208,2.14,2.035,5.833,2.035c3.693,0,5.626-1.827,5.834-2.035
		c0.606-0.608,0.605-1.58,0.007-2.196C55.888,57.628,54.897,57.611,54.27,58.199L54.27,58.199z M54.27,58.199"/>
	<path d="M58.511,40.445c-2.591,0-4.074,1.522-4.542,2.42c-0.392,0.755-0.103,1.655,0.637,2.072c0.74,0.423,1.691,0.146,2.132-0.577
		c0.016-0.023,0.092-0.115,0.2-0.22v1.027c0,0.868,0.705,1.572,1.572,1.572c0.87,0,1.574-0.705,1.574-1.572v-1.036
		c0.104,0.097,0.171,0.177,0.178,0.189c0.279,0.537,0.829,0.847,1.397,0.847c0.244,0,0.492-0.058,0.727-0.179
		c0.771-0.401,1.069-1.352,0.669-2.124C62.588,41.967,61.104,40.445,58.511,40.445L58.511,40.445z M58.511,40.445"/>
	<path d="M72.641,38.483c0.687,0.205,1.136,0.319,1.226,0.341c0.128,0.034,0.257,0.047,0.384,0.047c0.705,0,1.346-0.476,1.525-1.191
		c0.211-0.843-0.303-1.698-1.145-1.909c-3.306-0.828-12.396-3.985-14.711-8.619c-0.198-0.396-0.555-0.69-0.981-0.811
		c-0.428-0.121-0.886-0.055-1.26,0.18c-12.051,7.531-30.456,7.629-30.641,7.629c-0.867,0.001-1.572,0.704-1.572,1.575
		c0,0.867,0.705,1.572,1.574,1.572c0.123,0,0.682-0.003,1.581-0.036c-0.002,0.013-0.008,0.023-0.008,0.036
		c0,6.429,3.134,19.233,4.886,22.735c1.665,3.33,6.73,13.459,17.145,13.459c10.415,0,15.479-10.129,17.145-13.459
		C69.438,56.733,72.313,45.188,72.641,38.483L72.641,38.483z M50.644,70.344c-8.469,0-12.88-8.82-14.328-11.719
		c-1.434-2.862-4.556-15.241-4.556-21.327c0-0.078-0.033-0.145-0.044-0.218c6.205-0.487,17.38-2.049,26.275-7.083
		c2.653,3.6,7.809,6.048,11.533,7.438c-0.045,6.128-3.13,18.347-4.552,21.189C63.524,61.523,59.113,70.344,50.644,70.344
		L50.644,70.344z M50.644,70.344"/>
	<path d="M44.35,44.131c0.101,0.097,0.17,0.177,0.177,0.189c0.28,0.537,0.83,0.847,1.397,0.847c0.244,0,0.493-0.058,0.726-0.179
		c0.771-0.401,1.07-1.352,0.669-2.124c-0.468-0.898-1.952-2.42-4.544-2.42c-2.591,0-4.076,1.522-4.543,2.42
		c-0.392,0.755-0.103,1.655,0.637,2.072c0.74,0.423,1.689,0.146,2.133-0.577c0.014-0.023,0.091-0.115,0.2-0.22v1.027
		c0,0.868,0.705,1.572,1.573,1.572c0.869,0,1.574-0.705,1.574-1.572V44.131z M44.35,44.131"/>
	<path d="M39.548,78.887c-0.869,0-1.566,0.705-1.566,1.572c0,0.87,0.714,1.574,1.581,1.574c0.871,0,1.574-0.704,1.574-1.574
		c0-0.867-0.703-1.572-1.574-1.572H39.548z M39.548,78.887"/>
	<path d="M27.04,53.035v1.574c0,0.867,0.705,1.572,1.574,1.572c0.868,0,1.573-0.705,1.573-1.572v-1.574
		c0-0.87-0.705-1.574-1.573-1.574C27.745,51.461,27.04,52.165,27.04,53.035L27.04,53.035z M27.04,53.035"/>
	<path d="M65.678,77.428c0.871,0,1.575-0.704,1.575-1.573s-0.704-1.573-1.575-1.573h-0.015c-0.868,0-1.566,0.704-1.566,1.573
		S64.811,77.428,65.678,77.428L65.678,77.428z M65.678,77.428"/>
	<g>
		<path d="M72.675,51.461c-0.868,0-1.574,0.704-1.574,1.574v1.573c0,0.868,0.706,1.573,1.574,1.573c0.869,0,1.574-0.705,1.574-1.573
			v-1.573C74.249,52.165,73.544,51.461,72.675,51.461L72.675,51.461z M72.675,51.461"/>
		<path d="M97.773,90.305c-1.826-5.477-13.829-13.599-26.673-13.599c-0.592,0-1.135,0.335-1.403,0.863
			c-0.243,0.476-6.068,11.658-19.054,11.658c-12.983,0-18.809-11.243-19.051-11.722c-0.268-0.529-0.813-0.866-1.406-0.866
			c-16.228,0-24.84,8.172-26.671,13.664c-0.274,0.825,0.171,1.716,0.996,1.991c0.826,0.275,1.715-0.17,1.991-0.995
			c1.452-4.356,8.895-11.214,22.767-11.504c1.791,3.014,8.495,12.581,21.375,12.581c12.87,0,19.573-9.506,21.37-12.51
			C83.961,80.242,93.65,87.89,94.786,91.3c0.222,0.659,0.834,1.077,1.493,1.077c0.166,0,0.332-0.025,0.497-0.081
			C97.601,92.021,98.049,91.129,97.773,90.305L97.773,90.305z M97.773,90.305"/>
	</g>
	<path d="M50.675,82.934c-0.868,0-1.566,0.705-1.566,1.574c0,0.868,0.711,1.574,1.582,1.574c0.87,0,1.573-0.706,1.573-1.574
		c0-0.869-0.704-1.574-1.573-1.574H50.675z M50.675,82.934"/>
	<path d="M61.799,78.885c-0.867,0-1.564,0.705-1.564,1.574c0,0.868,0.712,1.573,1.582,1.573c0.869,0,1.573-0.705,1.573-1.573
		c0-0.869-0.704-1.574-1.573-1.574H61.799z M61.799,78.885"/>
	<path d="M56.596,81.89c-0.868,0-1.565,0.706-1.565,1.575c0,0.867,0.711,1.573,1.581,1.573s1.574-0.706,1.574-1.573
		c0-0.869-0.704-1.575-1.574-1.575H56.596z M56.596,81.89"/>
	<path d="M44.756,81.89c-0.87,0-1.566,0.706-1.566,1.575c0,0.867,0.711,1.573,1.581,1.573c0.87,0,1.575-0.706,1.575-1.573
		c0-0.869-0.705-1.575-1.575-1.575H44.756z M44.756,81.89"/>
	<path d="M35.683,74.282c-0.868,0-1.565,0.704-1.565,1.573c0,0.87,0.712,1.574,1.582,1.574s1.573-0.704,1.573-1.574
		c0-0.869-0.704-1.573-1.573-1.573H35.683z M35.683,74.282"/>
</g>
<path d="M83.689,35.725c0-5.306,0.688-12.839-10.521-22.482c-10.002-8.606-33.927-9.595-44.807-0.799
	c-8.731,7.059-10.764,17.972-10.764,23.281c0,4.331,0.038,5.056,1.181,7.437c-1.882,1.808-2.757,4.468-2.37,7.363
	c0.355,2.656,1.729,4.949,3.665,6.275c-0.65,1.396-0.901,2.96-0.901,4.104c0,7.41,5.824,12.589,14.162,12.589
	c0.869,0,1.574-0.705,1.574-1.573s-0.705-1.575-1.574-1.575c-5.483,0-11.015-2.92-11.015-9.44c0-1.133,0.368-2.767,1.177-3.674
	c0.351-0.398,0.479-0.942,0.343-1.453s-0.521-0.919-1.022-1.087c-1.701-0.566-2.991-2.366-3.288-4.584
	c-0.294-2.189,0.488-4.135,2.09-5.204c0.659-0.44,0.888-1.303,0.534-2.012c-1.409-2.815-1.409-2.815-1.409-7.165
	c0-3.968-0.463-11.395,9.22-20.24C40.316,6.03,65.068,9.847,72.34,16.561c7.273,6.715,8.203,15.196,8.203,19.164
	c0,4.332,0,4.332-1.408,7.168c-0.354,0.708-0.124,1.566,0.532,2.008c1.593,1.067,2.366,3.016,2.071,5.207
	c-0.294,2.185-1.607,4.026-3.271,4.583c-0.516,0.173-0.905,0.601-1.03,1.131c-0.125,0.531,0.033,1.088,0.418,1.474
	c1.113,1.111,1.113,2.439,1.113,3.608c0,6.521-5.533,9.44-11.016,9.44c-0.868,0-1.573,0.707-1.573,1.575s0.705,1.573,1.573,1.573
	c8.339,0,14.163-5.179,14.163-12.589c0-1.046,0-2.61-0.811-4.173c1.872-1.336,3.201-3.596,3.552-6.203
	c0.389-2.896-0.48-5.556-2.352-7.364C83.651,40.768,83.689,40.059,83.689,35.725z"/>
<path fill="#0B0D0F" d="M106.319,20.153c-0.517-1.585-1.617-2.873-3.099-3.627c-1.447-0.738-3.211-0.876-4.756-0.376l-0.109,0.036
	l-0.034-0.108c-0.514-1.583-1.614-2.872-3.099-3.629c-1.445-0.738-3.206-0.877-4.756-0.375c-3.27,1.062-5.065,4.586-4.005,7.855
	l3.424,10.542c0.094,0.287,0.272,0.54,0.501,0.713c0.076,0.06,0.159,0.114,0.248,0.159c0.209,0.107,0.443,0.163,0.678,0.163
	c0.155,0,0.312-0.025,0.463-0.074l10.541-3.423c1.581-0.514,2.869-1.614,3.625-3.1C106.699,23.424,106.833,21.735,106.319,20.153z
	 M101.395,25.172l-9.13,2.965l-2.965-9.13c-0.269-0.825-0.198-1.705,0.196-2.48s1.066-1.349,1.891-1.617
	c0.329-0.106,0.668-0.161,1.007-0.161c0.514,0,1.01,0.12,1.475,0.357c0.773,0.395,1.348,1.067,1.615,1.892l0.496,1.53
	c0.194,0.591,0.808,1.021,1.457,1.021c0.146,0,0.288-0.022,0.423-0.065l1.525-0.496c0.817-0.264,1.719-0.192,2.481,0.196
	c0.775,0.396,1.35,1.067,1.616,1.892C104.036,22.781,103.1,24.619,101.395,25.172z"/>
<path fill="#080A0E" d="M99.676,40.341c-0.32-0.961-0.995-1.739-1.9-2.191c-0.892-0.445-1.947-0.519-2.892-0.205
	c-0.85,0.284-1.563,0.85-2.026,1.607c-0.819-0.325-1.743-0.349-2.587-0.068c-0.961,0.321-1.738,0.996-2.19,1.901
	c-0.452,0.904-0.523,1.931-0.203,2.892s0.994,1.739,1.899,2.191l5.365,2.681c0.168,0.086,0.357,0.131,0.548,0.131
	c0.058,0,0.115-0.004,0.187-0.015l0.21-0.049c0.307-0.104,0.556-0.32,0.702-0.61l2.684-5.372
	C99.924,42.33,99.997,41.302,99.676,40.341z M96.688,40.331c0.321,0.161,0.562,0.438,0.676,0.781
	c0.114,0.343,0.089,0.708-0.072,1.03l-2.142,4.284l-4.284-2.141c-0.321-0.16-0.562-0.438-0.676-0.78
	c-0.114-0.343-0.088-0.709,0.072-1.032c0.16-0.322,0.438-0.562,0.781-0.676c0.141-0.047,0.285-0.071,0.43-0.071
	c0.208,0,0.41,0.048,0.601,0.143l0.777,0.389c0.558,0.279,1.358,0.007,1.637-0.546l0.388-0.777c0.161-0.323,0.438-0.563,0.78-0.677
	C95.999,40.146,96.366,40.172,96.688,40.331z"/>
</svg>
